<svg version="1.1" xmlns="http://www.w3.org/2000/svg" xmlns:xlink="http://www.w3.org/1999/xlink" x="0px" y="0px" width="310px"
	 height="274px" viewBox="0 0 310 274" enable-background="new 0 0 310 274" xml:space="preserve">
<g id="Layer_1">
	<path fill-rule="evenodd" clip-rule="evenodd" fill="#2E3192" d="M218.594,143.688c23-4.875,58-7.75,70.451,15.363
		c4.225,7.842,8.727,20.162,2.579,28.112c-6.066,7.848-17.105,3.05-23.53-1.62c-5.37-3.908-9.875-8.935-13.793-14.264
		c-4.347-5.91-7.653-12.469-11.743-18.569c-1.675-2.498-2.885-5.373-5.192-7.391c-2.559-2.236-6.049-2.323-9.269-2.174
		C224.982,143.29,221.646,143.04,218.594,143.688z"/>
	<linearGradient id="SVGID_1_" gradientUnits="userSpaceOnUse" x1="18.8687" y1="86.9106" x2="161.6167" y2="86.9106">
		<stop  offset="0.0097" style="stop-color:#002E49;stop-opacity:0.5"/>
		<stop  offset="0.0288" style="stop-color:#224A62;stop-opacity:0.5193"/>
		<stop  offset="0.0536" style="stop-color:#46687C;stop-opacity:0.5444"/>
		<stop  offset="0.0815" style="stop-color:#668494;stop-opacity:0.5725"/>
		<stop  offset="0.1124" style="stop-color:#829AA8;stop-opacity:0.6037"/>
		<stop  offset="0.1472" style="stop-color:#98ADB8;stop-opacity:0.6389"/>
		<stop  offset="0.1879" style="stop-color:#A9BBC5;stop-opacity:0.68"/>
		<stop  offset="0.2382" style="stop-color:#B4C5CE;stop-opacity:0.7309"/>
		<stop  offset="0.3088" style="stop-color:#BBCAD3;stop-opacity:0.8021"/>
		<stop  offset="0.5047" style="stop-color:#BDCCD4"/>
		<stop  offset="0.5615" style="stop-color:#B8C7CF;stop-opacity:0.9198"/>
		<stop  offset="0.6296" style="stop-color:#ABB9C0;stop-opacity:0.8235"/>
		<stop  offset="0.7036" style="stop-color:#96A2A8;stop-opacity:0.7189"/>
		<stop  offset="0.7818" style="stop-color:#788186;stop-opacity:0.6083"/>
		<stop  offset="0.8634" style="stop-color:#51575A;stop-opacity:0.4931"/>
		<stop  offset="0.9464" style="stop-color:#222526;stop-opacity:0.3757"/>
		<stop  offset="1" style="stop-color:#000000;stop-opacity:0.3"/>
	</linearGradient>
	<path fill-rule="evenodd" clip-rule="evenodd" fill="url(#SVGID_1_)" d="M62.509,131.422c-0.185,0.948-1.107,1.599-2.305,2.139
		c-6.002,2.71-11.622,5.356-17.169,8.987c-5.63,3.686-11.083,7.649-16.909,11.026c-0.59,0.342-6.528,3.13-6.503,3.403
		c-1.859-20.842-0.209-42.005,4.2-62.439c1.848-8.566,4.43-17.014,8.293-24.898c6.06-12.371,15.242-22.996,26.203-31.287
		c13.796-10.436,31.137-14.338,47.819-17.412c14.234-2.623,28.691-4.395,43.188-4.059c4.077,0.094,8.255,0.216,12.291,0.83
		c-1.972,1.009-5.527,0.554-7.785,0.486c-2.618-0.079-5.235-0.272-7.855-0.195c-10.566,0.309-21.14,0.961-31.542,2.933
		c-5.33,1.01-10.557,2.393-15.577,4.479c-5.512,2.29-10.536,5.354-14.755,9.611c-4.276,4.314-7.369,9.41-9.657,15.02
		c-2.795,6.853-4.522,13.996-5.65,21.277c-0.96,6.2-1.735,12.431-2.467,18.663c-0.477,4.057-0.735,8.139-1.083,12.211
		c-0.395,4.606-0.796,9.211-1.164,13.819c-0.295,3.703-0.531,7.412-0.822,11.115C63.13,128.763,62.834,129.752,62.509,131.422z"/>
	<linearGradient id="SVGID_2_" gradientUnits="userSpaceOnUse" x1="46.0845" y1="144.7969" x2="276.7461" y2="144.7969">
		<stop  offset="0" style="stop-color:#1B1464"/>
		<stop  offset="0.4465" style="stop-color:#1A1462;stop-opacity:0.955"/>
		<stop  offset="0.6073" style="stop-color:#19125B;stop-opacity:0.9388"/>
		<stop  offset="0.7219" style="stop-color:#151050;stop-opacity:0.9273"/>
		<stop  offset="0.8146" style="stop-color:#110D3F;stop-opacity:0.9179"/>
		<stop  offset="0.8939" style="stop-color:#0B0829;stop-opacity:0.9099"/>
		<stop  offset="0.963" style="stop-color:#04030E;stop-opacity:0.903"/>
		<stop  offset="0.9927" style="stop-color:#000000;stop-opacity:0.9"/>
	</linearGradient>
	
		<radialGradient id="SVGID_3_" cx="161.2529" cy="144.7969" r="86.983" gradientTransform="matrix(1 0 0 0.1 0 -147.6)" gradientUnits="userSpaceOnUse">
		<stop  offset="0" style="stop-color:#2E3192"/>
		<stop  offset="0.6" style="stop-color:#1B1464"/>
		<stop  offset="0.9745" style="stop-color:#1B1464"/>
		<stop  offset="0.9747" style="stop-color:#1B1464"/>
		<stop  offset="0.991" style="stop-color:#1B1443"/>
		<stop  offset="0.9999" style="stop-color:#1B1436"/>
	</radialGradient>
	<path fill-rule="evenodd" clip-rule="evenodd" fill="url(#SVGID_2_)" stroke="url(#SVGID_3_)" stroke-miterlimit="10" d="
		M62.423,132.264c14.259-6.672,29.868-11.47,44.5-15.859c5.929-1.779,11.897-3.427,17.894-4.962
		c7.51-1.922,15.09-3.581,22.734-4.878c7.477-1.269,15.022-2.146,22.599-2.519c22.783-1.121,44.43,2.489,65.225,11.913
		c0.819,0.372,8.922,6.905,12.509,9.549c9.611,7.083,19.806,13.885,28.862,21.672c-9.582-8.24-31.821-7.645-43.374-6.357
		c-13.763,1.533-27.45,5.766-40.231,10.988c-36.032,14.727-86.816,55.27-122.349,19.719c-8.193-8.197-14.56-18.033-21.218-27.453
		c-0.761-1.076-2.685-1.861-3.49-2.908c0.266-0.293,1.566-0.896,1.889-1.1C52.556,137.191,57.406,134.612,62.423,132.264z"/>
	<linearGradient id="SVGID_4_" gradientUnits="userSpaceOnUse" x1="149.6592" y1="18.1592" x2="149.6592" y2="131.7598">
		<stop  offset="0.3355" style="stop-color:#FFFFFF"/>
		<stop  offset="0.5831" style="stop-color:#FDFDFD;stop-opacity:0.6646"/>
		<stop  offset="0.6723" style="stop-color:#F6F6F6;stop-opacity:0.5438"/>
		<stop  offset="0.7359" style="stop-color:#EBEBEB;stop-opacity:0.4577"/>
		<stop  offset="0.7873" style="stop-color:#DADADA;stop-opacity:0.388"/>
		<stop  offset="0.8314" style="stop-color:#C4C4C4;stop-opacity:0.3284"/>
		<stop  offset="0.8704" style="stop-color:#A8A8A8;stop-opacity:0.2755"/>
		<stop  offset="0.9057" style="stop-color:#888888;stop-opacity:0.2277"/>
		<stop  offset="0.9381" style="stop-color:#626262;stop-opacity:0.1838"/>
		<stop  offset="0.9683" style="stop-color:#373737;stop-opacity:0.1429"/>
		<stop  offset="0.9951" style="stop-color:#090909;stop-opacity:0.1066"/>
		<stop  offset="1" style="stop-color:#000000;stop-opacity:0.1"/>
	</linearGradient>
	<path fill-rule="evenodd" clip-rule="evenodd" fill="url(#SVGID_4_)" d="M162.778,18.518c1.952,0.159,13.475,2.566,16.78,4.587
		c6.963,4.256,12.914,9.822,18.753,15.469c13.074,12.642,20.52,29.576,27.198,46.175c3.716,9.235,7.395,18.483,10.751,27.856
		c0.292,0.815,0.549,1.65,0.729,2.496c0.089,0.416-0.032,0.877-0.059,1.318c-0.788-0.443-1.548-0.948-2.367-1.32
		c-8.461-3.834-17.237-6.72-26.316-8.683c-7.162-1.549-14.406-2.505-21.722-2.849c-4.33-0.204-8.666-0.4-13.006-0.077
		c-3.294,0.245-6.603,0.303-9.891,0.605c-6.955,0.64-13.78,1.466-20.632,2.826c-14.333,2.845-28.7,6.41-42.584,10.915
		c-12.583,4.083-24.211,7.412-36.417,13.166c-0.397,0.187-1.116,0.587-1.644,0.748c-0.121,0.083-0.013-0.368-0.005-0.401
		c0.109-0.437,0.285-0.93,0.342-1.415c0.068-0.581,0.133-1.163,0.193-1.745c0.121-1.172,0.228-2.345,0.333-3.519
		c0.059-0.66,0.116-1.32,0.175-1.98c0.064-0.724,0.128-1.447,0.19-2.171c0.047-0.558,0.072-1.123,0.141-1.678
		c0.102-1.208,0.204-2.416,0.311-3.624c0.012-0.128,0.023-0.255,0.035-0.383c2.067-23.096,0.907-49.93,12.598-70.827
		c8.822-15.769,25.983-20.39,42.604-22.812C133.824,19.073,149.026,17.397,162.778,18.518z"/>
	<linearGradient id="SVGID_6_" gradientUnits="userSpaceOnUse" x1="276.3125" y1="147.6875" x2="278.7188" y2="147.6875">
		<stop  offset="0" style="stop-color:#1B1464"/>
		<stop  offset="0.4465" style="stop-color:#1A1462;stop-opacity:0.955"/>
		<stop  offset="0.6073" style="stop-color:#19125B;stop-opacity:0.9388"/>
		<stop  offset="0.7219" style="stop-color:#151050;stop-opacity:0.9273"/>
		<stop  offset="0.8146" style="stop-color:#110D3F;stop-opacity:0.9179"/>
		<stop  offset="0.8939" style="stop-color:#0B0829;stop-opacity:0.9099"/>
		<stop  offset="0.963" style="stop-color:#04030E;stop-opacity:0.903"/>
		<stop  offset="0.9927" style="stop-color:#000000;stop-opacity:0.9"/>
	</linearGradient>
	<linearGradient id="SVGID_8_" gradientUnits="userSpaceOnUse" x1="277.7002" y1="146.6621" x2="277.2993" y2="148.7246">
		<stop  offset="0" style="stop-color:#1B1436"/>
		<stop  offset="0.2189" style="stop-color:#1B1438"/>
		<stop  offset="0.2978" style="stop-color:#1B143F"/>
		<stop  offset="0.354" style="stop-color:#1B144A"/>
		<stop  offset="0.3991" style="stop-color:#1B145B"/>
		<stop  offset="0.4165" style="stop-color:#1B1464"/>
		<stop  offset="0.4284" style="stop-color:#1F1A6D"/>
		<stop  offset="0.4594" style="stop-color:#26247E"/>
		<stop  offset="0.4979" style="stop-color:#2A2C89"/>
		<stop  offset="0.5521" style="stop-color:#2D3090"/>
		<stop  offset="0.7023" style="stop-color:#2E3192"/>
	</linearGradient>
	<path fill="url(#SVGID_6_)" stroke="url(#SVGID_8_)" stroke-miterlimit="10" d="M276.312,146.828c0.5,0.453,1.125,0.75,1.562,1.188
		c0.353,0.353-1.484-1.297,0.844,0.531"/>
</g>
<g id="Layer_3">
</g>
<g id="Layer_2">
	<g>
		<g>
			<g enable-background="new    ">
				<g enable-background="new    ">
					<defs>
						<path id="SVGID_5_" enable-background="new    " d="M102.848,71.448l-0.642-0.349c-0.343-0.22-0.688-0.439-1.031-0.659
							l0.642,0.349C102.16,71.008,102.504,71.228,102.848,71.448z"/>
					</defs>
					<clipPath id="SVGID_10_">
						<use xlink:href="#SVGID_5_"  overflow="visible"/>
					</clipPath>
					<g clip-path="url(#SVGID_10_)" enable-background="new    ">
						<path fill="#626A6E" d="M102.848,71.448l-0.642-0.349c-0.343-0.22-0.688-0.439-1.031-0.659l0.642,0.349
							C102.16,71.008,102.504,71.228,102.848,71.448"/>
					</g>
				</g>
				<g>
					<path fill="#A5B2B9" d="M103.044,64.868c0.264,0.188,0.536,0.365,0.808,0.552c-0.107,1.709-0.214,3.418-0.33,5.129
						c-0.225,0.3-0.45,0.599-0.675,0.899c-0.344-0.22-0.688-0.439-1.032-0.659c0.099-1.561,0.206-3.123,0.305-4.685
						C102.426,65.689,102.731,65.284,103.044,64.868z"/>
				</g>
				<g enable-background="new    ">
					<defs>
						<path id="SVGID_7_" enable-background="new    " d="M101.816,70.789l-0.642-0.349c0.099-1.561,0.206-3.123,0.305-4.685
							l0.642,0.349C102.021,67.666,101.915,69.228,101.816,70.789z"/>
					</defs>
					<clipPath id="SVGID_12_">
						<use xlink:href="#SVGID_7_"  overflow="visible"/>
					</clipPath>
					<g clip-path="url(#SVGID_12_)" enable-background="new    ">
						<path fill="#626A6E" d="M101.816,70.789l-0.642-0.349c0.099-1.561,0.206-3.123,0.305-4.685l0.642,0.349
							C102.021,67.666,101.915,69.228,101.816,70.789"/>
					</g>
				</g>
				<g enable-background="new    ">
					<defs>
						<path id="SVGID_9_" enable-background="new    " d="M102.121,66.104l-0.642-0.349c0.305-0.415,0.609-0.82,0.923-1.236
							l0.642,0.35C102.731,65.284,102.426,65.689,102.121,66.104z"/>
					</defs>
					<clipPath id="SVGID_14_">
						<use xlink:href="#SVGID_9_"  overflow="visible"/>
					</clipPath>
					<g clip-path="url(#SVGID_14_)" enable-background="new    ">
						<path fill="#6E767B" d="M102.121,66.104l-0.642-0.349c0.305-0.415,0.609-0.82,0.923-1.236l0.642,0.35
							C102.731,65.284,102.426,65.689,102.121,66.104"/>
					</g>
				</g>
				<g enable-background="new    ">
					<defs>
						<path id="SVGID_11_" enable-background="new    " d="M94.488,75.025l-0.642-0.349c-0.2-0.119-0.4-0.238-0.592-0.367
							l0.642,0.349C94.088,74.788,94.289,74.906,94.488,75.025z"/>
					</defs>
					<clipPath id="SVGID_16_">
						<use xlink:href="#SVGID_11_"  overflow="visible"/>
					</clipPath>
					<g clip-path="url(#SVGID_16_)" enable-background="new    ">
						<path fill="#626A6E" d="M94.488,75.025l-0.642-0.349c-0.2-0.119-0.4-0.238-0.592-0.367l0.642,0.349
							C94.088,74.788,94.289,74.906,94.488,75.025"/>
					</g>
				</g>
				<g>
					<path fill="#A5B2B9" d="M101.833,65.92c-1.868,0.755-3.735,1.545-5.586,2.375c-0.528-0.341-1.056-0.672-1.584-0.996
						c2.413-1.108,4.841-2.159,7.286-3.142c0.264,0.179,0.536,0.356,0.8,0.527C102.443,65.099,102.138,65.505,101.833,65.92z"/>
				</g>
				<g enable-background="new    ">
					<defs>
						<path id="SVGID_13_" enable-background="new    " d="M96.247,68.295l-0.642-0.349c-0.528-0.341-1.056-0.673-1.584-0.996
							l0.642,0.349C95.191,67.623,95.719,67.955,96.247,68.295z"/>
					</defs>
					<clipPath id="SVGID_18_">
						<use xlink:href="#SVGID_13_"  overflow="visible"/>
					</clipPath>
					<g clip-path="url(#SVGID_18_)" enable-background="new    ">
						<path fill="#626A6E" d="M96.247,68.295l-0.642-0.349c-0.528-0.341-1.056-0.673-1.584-0.996l0.642,0.349
							C95.191,67.623,95.719,67.955,96.247,68.295"/>
					</g>
				</g>
				<g enable-background="new    ">
					<defs>
						<path id="SVGID_15_" enable-background="new    " d="M94.663,67.299l-0.642-0.349c2.413-1.108,4.841-2.159,7.286-3.142
							l0.642,0.349C99.504,65.141,97.075,66.191,94.663,67.299z"/>
					</defs>
					<clipPath id="SVGID_20_">
						<use xlink:href="#SVGID_15_"  overflow="visible"/>
					</clipPath>
					<g clip-path="url(#SVGID_20_)" enable-background="new    ">
						<path fill="#7D878C" d="M94.663,67.299l-0.642-0.349c2.413-1.108,4.841-2.159,7.286-3.142l0.642,0.349
							C99.504,65.141,97.075,66.191,94.663,67.299"/>
					</g>
				</g>
				<g>
					<path fill="#A5B2B9" d="M95.637,73.429c-0.385,0.53-0.763,1.067-1.148,1.597c-0.2-0.119-0.4-0.238-0.592-0.367
						c0.141-2.301,0.289-4.604,0.429-6.906c0.536,0.322,1.072,0.645,1.6,0.977C95.834,70.298,95.736,71.868,95.637,73.429z"/>
				</g>
				<g enable-background="new    ">
					<defs>
						<path id="SVGID_17_" enable-background="new    " d="M93.896,74.659l-0.642-0.349c0.14-2.302,0.289-4.604,0.429-6.906
							l0.642,0.349C94.186,70.055,94.037,72.357,93.896,74.659z"/>
					</defs>
					<clipPath id="SVGID_22_">
						<use xlink:href="#SVGID_17_"  overflow="visible"/>
					</clipPath>
					<g clip-path="url(#SVGID_22_)" enable-background="new    ">
						<path fill="#626A6E" d="M93.896,74.659l-0.642-0.349c0.14-2.302,0.289-4.604,0.429-6.906l0.642,0.349
							C94.186,70.055,94.037,72.357,93.896,74.659"/>
					</g>
				</g>
			</g>
			<g enable-background="new    ">
				<g enable-background="new    ">
					<defs>
						<path id="SVGID_19_" enable-background="new    " d="M102.145,78.876l-0.642-0.349c-0.264-0.179-0.536-0.366-0.808-0.543
							l0.642,0.349C101.609,78.511,101.881,78.697,102.145,78.876z"/>
					</defs>
					<clipPath id="SVGID_24_">
						<use xlink:href="#SVGID_19_"  overflow="visible"/>
					</clipPath>
					<g clip-path="url(#SVGID_24_)" enable-background="new    ">
						<path fill="#626A6E" d="M102.145,78.876l-0.642-0.349c-0.264-0.179-0.536-0.366-0.808-0.543l0.642,0.349
							C101.609,78.511,101.881,78.697,102.145,78.876"/>
					</g>
				</g>
				<g>
					<path fill="#A5B2B9" d="M101.634,73.649c0.394-0.514,0.787-1.027,1.172-1.54c0.2,0.137,0.392,0.282,0.592,0.427
						c-0.107,1.7-0.215,3.401-0.33,5.103c-0.305,0.414-0.61,0.82-0.923,1.236c-0.264-0.179-0.536-0.365-0.808-0.543
						C101.437,76.771,101.536,75.21,101.634,73.649z"/>
				</g>
				<g enable-background="new    ">
					<defs>
						<path id="SVGID_21_" enable-background="new    " d="M101.634,73.649l-0.642-0.35c0.393-0.513,0.787-1.027,1.172-1.539
							l0.642,0.349C102.421,72.622,102.028,73.136,101.634,73.649z"/>
					</defs>
					<clipPath id="SVGID_26_">
						<use xlink:href="#SVGID_21_"  overflow="visible"/>
					</clipPath>
					<g clip-path="url(#SVGID_26_)" enable-background="new    ">
						<path fill="#6E767B" d="M101.634,73.649l-0.642-0.35c0.393-0.513,0.787-1.027,1.172-1.539l0.642,0.349
							C102.421,72.622,102.028,73.136,101.634,73.649"/>
					</g>
				</g>
				<g enable-background="new    ">
					<defs>
						<path id="SVGID_23_" enable-background="new    " d="M101.337,78.333l-0.642-0.349c0.099-1.561,0.198-3.123,0.297-4.684
							l0.642,0.35C101.536,75.21,101.437,76.771,101.337,78.333z"/>
					</defs>
					<clipPath id="SVGID_28_">
						<use xlink:href="#SVGID_23_"  overflow="visible"/>
					</clipPath>
					<g clip-path="url(#SVGID_28_)" enable-background="new    ">
						<path fill="#626A6E" d="M101.337,78.333l-0.642-0.349c0.099-1.561,0.198-3.123,0.297-4.684l0.642,0.35
							C101.536,75.21,101.437,76.771,101.337,78.333"/>
					</g>
				</g>
				<g enable-background="new    ">
					<defs>
						<path id="SVGID_25_" enable-background="new    " d="M95.438,81.192l-0.642-0.349c1.851-0.839,3.711-1.646,5.578-2.409
							l0.642,0.349C99.149,79.547,97.289,80.354,95.438,81.192z"/>
					</defs>
					<clipPath id="SVGID_30_">
						<use xlink:href="#SVGID_25_"  overflow="visible"/>
					</clipPath>
					<g clip-path="url(#SVGID_30_)" enable-background="new    ">
						<path fill="#7D878C" d="M95.438,81.192l-0.642-0.349c1.851-0.839,3.711-1.646,5.578-2.409l0.642,0.349
							C99.149,79.547,97.289,80.354,95.438,81.192"/>
					</g>
				</g>
				<g>
					<path fill="#A5B2B9" d="M95.438,81.192c1.851-0.838,3.711-1.645,5.578-2.409c0.264,0.179,0.536,0.366,0.8,0.544
						c-0.306,0.406-0.61,0.812-0.907,1.217c-2.445,1-4.865,2.058-7.27,3.182C94.233,82.884,94.836,82.029,95.438,81.192z"/>
				</g>
				<g enable-background="new    ">
					<defs>
						<path id="SVGID_27_" enable-background="new    " d="M93.64,83.728l-0.642-0.349c0.594-0.844,1.196-1.699,1.799-2.535
							l0.642,0.349C94.836,82.029,94.233,82.884,93.64,83.728z"/>
					</defs>
					<clipPath id="SVGID_32_">
						<use xlink:href="#SVGID_27_"  overflow="visible"/>
					</clipPath>
					<g clip-path="url(#SVGID_32_)" enable-background="new    ">
						<path fill="#6E767B" d="M93.64,83.728l-0.642-0.349c0.594-0.844,1.196-1.699,1.799-2.535l0.642,0.349
							C94.836,82.029,94.233,82.884,93.64,83.728"/>
					</g>
				</g>
				<g>
					<path fill="#A5B2B9" d="M95.455,76.298c-0.099,1.561-0.198,3.131-0.297,4.701c-0.61,0.846-1.213,1.7-1.823,2.555
						c0.149-2.303,0.29-4.596,0.43-6.889c0.232-0.335,0.458-0.66,0.683-0.986C94.783,75.882,95.119,76.095,95.455,76.298z"/>
				</g>
				<g enable-background="new    ">
					<defs>
						<path id="SVGID_29_" enable-background="new    " d="M93.335,83.554l-0.642-0.349c0.148-2.303,0.289-4.596,0.43-6.889
							l0.642,0.349C93.625,78.958,93.484,81.251,93.335,83.554z"/>
					</defs>
					<clipPath id="SVGID_34_">
						<use xlink:href="#SVGID_29_"  overflow="visible"/>
					</clipPath>
					<g clip-path="url(#SVGID_34_)" enable-background="new    ">
						<path fill="#626A6E" d="M93.335,83.554l-0.642-0.349c0.148-2.303,0.289-4.596,0.43-6.889l0.642,0.349
							C93.625,78.958,93.484,81.251,93.335,83.554"/>
					</g>
				</g>
				<g enable-background="new    ">
					<defs>
						<path id="SVGID_31_" enable-background="new    " d="M93.765,76.665l-0.642-0.349c0.232-0.335,0.458-0.66,0.683-0.986
							l0.642,0.349C94.223,76.005,93.997,76.33,93.765,76.665z"/>
					</defs>
					<clipPath id="SVGID_36_">
						<use xlink:href="#SVGID_31_"  overflow="visible"/>
					</clipPath>
					<g clip-path="url(#SVGID_36_)" enable-background="new    ">
						<path fill="#6A7277" d="M93.765,76.665l-0.642-0.349c0.232-0.335,0.458-0.66,0.683-0.986l0.642,0.349
							C94.223,76.005,93.997,76.33,93.765,76.665"/>
					</g>
				</g>
			</g>
			<g enable-background="new    ">
				<g enable-background="new    ">
					<defs>
						<path id="SVGID_33_" enable-background="new    " d="M107.884,76.159l-0.642-0.35c1.995-0.712,3.999-1.383,6.01-2.011
							l0.642,0.349C111.883,74.776,109.88,75.447,107.884,76.159z"/>
					</defs>
					<clipPath id="SVGID_38_">
						<use xlink:href="#SVGID_33_"  overflow="visible"/>
					</clipPath>
					<g clip-path="url(#SVGID_38_)" enable-background="new    ">
						<path fill="#7D878C" d="M107.884,76.159l-0.642-0.35c1.995-0.712,3.999-1.383,6.01-2.011l0.642,0.349
							C111.883,74.776,109.88,75.447,107.884,76.159"/>
					</g>
				</g>
				<g>
					<path fill="#A5B2B9" d="M107.884,76.159c1.996-0.712,3.999-1.383,6.01-2.012c0.543,0.399,1.087,0.798,1.631,1.206
						c-3.181,0.957-6.338,2.022-9.48,3.182C106.656,77.741,107.274,76.945,107.884,76.159z"/>
				</g>
				<g enable-background="new    ">
					<defs>
						<path id="SVGID_35_" enable-background="new    " d="M106.046,78.535l-0.642-0.349c0.61-0.794,1.228-1.59,1.838-2.376
							l0.642,0.35C107.274,76.945,106.656,77.741,106.046,78.535z"/>
					</defs>
					<clipPath id="SVGID_40_">
						<use xlink:href="#SVGID_35_"  overflow="visible"/>
					</clipPath>
					<g clip-path="url(#SVGID_40_)" enable-background="new    ">
						<path fill="#6E767B" d="M106.046,78.535l-0.642-0.349c0.61-0.794,1.228-1.59,1.838-2.376l0.642,0.35
							C107.274,76.945,106.656,77.741,106.046,78.535"/>
					</g>
				</g>
				<g enable-background="new    ">
					<defs>
						<path id="SVGID_37_" enable-background="new    " d="M108.146,68.939l-0.642-0.349c2.027-0.717,4.063-1.401,6.106-2.034
							l0.642,0.35C112.209,67.539,110.173,68.223,108.146,68.939z"/>
					</defs>
					<clipPath id="SVGID_42_">
						<use xlink:href="#SVGID_37_"  overflow="visible"/>
					</clipPath>
					<g clip-path="url(#SVGID_42_)" enable-background="new    ">
						<path fill="#7D878C" d="M108.146,68.939l-0.642-0.349c2.027-0.717,4.063-1.401,6.106-2.034l0.642,0.35
							C112.209,67.539,110.173,68.223,108.146,68.939"/>
					</g>
				</g>
				<g enable-background="new    ">
					<defs>
						<path id="SVGID_39_" enable-background="new    " d="M108.031,70.693l-0.642-0.349c-0.272-0.187-0.536-0.383-0.808-0.569
							l0.642,0.349C107.495,70.31,107.759,70.507,108.031,70.693z"/>
					</defs>
					<clipPath id="SVGID_44_">
						<use xlink:href="#SVGID_39_"  overflow="visible"/>
					</clipPath>
					<g clip-path="url(#SVGID_44_)" enable-background="new    ">
						<path fill="#626A6E" d="M108.031,70.693l-0.642-0.349c-0.272-0.187-0.536-0.383-0.808-0.569l0.642,0.349
							C107.495,70.31,107.759,70.507,108.031,70.693"/>
					</g>
				</g>
				<g enable-background="new    ">
					<defs>
						<path id="SVGID_41_" enable-background="new    " d="M107.223,70.124l-0.642-0.349c0.305-0.397,0.61-0.786,0.923-1.184
							l0.642,0.349C107.833,69.338,107.528,69.727,107.223,70.124z"/>
					</defs>
					<clipPath id="SVGID_46_">
						<use xlink:href="#SVGID_41_"  overflow="visible"/>
					</clipPath>
					<g clip-path="url(#SVGID_46_)" enable-background="new    ">
						<path fill="#6E767B" d="M107.223,70.124l-0.642-0.349c0.305-0.397,0.61-0.786,0.923-1.184l0.642,0.349
							C107.833,69.338,107.528,69.727,107.223,70.124"/>
					</g>
				</g>
				<g>
					<path fill="#A5B2B9" d="M108.146,68.939c2.027-0.717,4.063-1.401,6.106-2.033c0.28,0.202,0.56,0.405,0.84,0.599
						c-0.321,0.382-0.634,0.764-0.955,1.154c-2.043,0.633-4.079,1.308-6.106,2.034c-0.272-0.186-0.536-0.383-0.808-0.569
						C107.528,69.727,107.833,69.338,108.146,68.939z"/>
				</g>
				<g>
					<path fill="#A5B2B9" d="M107.901,71.265c-0.099,1.561-0.198,3.113-0.297,4.674c-0.626,0.797-1.245,1.592-1.862,2.388
						c0.148-2.277,0.297-4.562,0.445-6.848c0.225-0.308,0.458-0.618,0.691-0.918C107.222,70.789,107.557,71.028,107.901,71.265z"/>
				</g>
				<g enable-background="new    ">
					<defs>
						<path id="SVGID_43_" enable-background="new    " d="M106.187,71.479l-0.642-0.349c0.226-0.308,0.458-0.618,0.691-0.918
							l0.642,0.349C106.645,70.862,106.412,71.171,106.187,71.479z"/>
					</defs>
					<clipPath id="SVGID_48_">
						<use xlink:href="#SVGID_43_"  overflow="visible"/>
					</clipPath>
					<g clip-path="url(#SVGID_48_)" enable-background="new    ">
						<path fill="#6E767B" d="M106.187,71.479l-0.642-0.349c0.226-0.308,0.458-0.618,0.691-0.918l0.642,0.349
							C106.645,70.862,106.412,71.171,106.187,71.479"/>
					</g>
				</g>
				<g enable-background="new    ">
					<defs>
						<path id="SVGID_45_" enable-background="new    " d="M105.742,78.327l-0.642-0.349c0.148-2.277,0.297-4.562,0.445-6.848
							l0.642,0.349C106.039,73.765,105.891,76.05,105.742,78.327z"/>
					</defs>
					<clipPath id="SVGID_50_">
						<use xlink:href="#SVGID_45_"  overflow="visible"/>
					</clipPath>
					<g clip-path="url(#SVGID_50_)" enable-background="new    ">
						<path fill="#626A6E" d="M105.742,78.327l-0.642-0.349c0.148-2.277,0.297-4.562,0.445-6.848l0.642,0.349
							C106.039,73.765,105.891,76.05,105.742,78.327"/>
					</g>
				</g>
				<g enable-background="new    ">
					<defs>
						<path id="SVGID_47_" enable-background="new    " d="M106.919,69.907l-0.642-0.349c-0.2-0.145-0.408-0.28-0.608-0.416
							l0.642,0.349C106.511,69.627,106.719,69.762,106.919,69.907z"/>
					</defs>
					<clipPath id="SVGID_52_">
						<use xlink:href="#SVGID_47_"  overflow="visible"/>
					</clipPath>
					<g clip-path="url(#SVGID_52_)" enable-background="new    ">
						<path fill="#626A6E" d="M106.919,69.907l-0.642-0.349c-0.2-0.145-0.408-0.28-0.608-0.416l0.642,0.349
							C106.511,69.627,106.719,69.762,106.919,69.907"/>
					</g>
				</g>
				<g enable-background="new    ">
					<defs>
						<path id="SVGID_49_" enable-background="new    " d="M107.093,62.19l-0.642-0.349c3.149-1.134,6.307-2.174,9.488-3.105
							l0.642,0.349C113.4,60.016,110.243,61.056,107.093,62.19z"/>
					</defs>
					<clipPath id="SVGID_54_">
						<use xlink:href="#SVGID_49_"  overflow="visible"/>
					</clipPath>
					<g clip-path="url(#SVGID_54_)" enable-background="new    ">
						<path fill="#7D878C" d="M107.093,62.19l-0.642-0.349c3.149-1.134,6.307-2.174,9.488-3.105l0.642,0.349
							C113.4,60.016,110.243,61.056,107.093,62.19"/>
					</g>
				</g>
				<g>
					<path fill="#A5B2B9" d="M114.727,61.35c-2.011,0.62-4.014,1.273-6.018,1.979c-0.536-0.383-1.072-0.757-1.616-1.139
						c3.149-1.134,6.307-2.174,9.488-3.105C115.963,59.837,115.345,60.589,114.727,61.35z"/>
				</g>
				<g enable-background="new    ">
					<defs>
						<path id="SVGID_51_" enable-background="new    " d="M108.709,63.329l-0.642-0.349c-0.536-0.383-1.072-0.757-1.616-1.139
							l0.642,0.349C107.637,62.572,108.173,62.946,108.709,63.329z"/>
					</defs>
					<clipPath id="SVGID_56_">
						<use xlink:href="#SVGID_51_"  overflow="visible"/>
					</clipPath>
					<g clip-path="url(#SVGID_56_)" enable-background="new    ">
						<path fill="#626A6E" d="M108.709,63.329l-0.642-0.349c-0.536-0.383-1.072-0.757-1.616-1.139l0.642,0.349
							C107.637,62.572,108.173,62.946,108.709,63.329"/>
					</g>
				</g>
				<g enable-background="new    ">
					<defs>
						<path id="SVGID_53_" enable-background="new    " d="M106.311,69.491l-0.642-0.349c0.148-2.294,0.297-4.588,0.438-6.873
							l0.642,0.349C106.608,64.903,106.459,67.197,106.311,69.491z"/>
					</defs>
					<clipPath id="SVGID_58_">
						<use xlink:href="#SVGID_53_"  overflow="visible"/>
					</clipPath>
					<g clip-path="url(#SVGID_58_)" enable-background="new    ">
						<path fill="#626A6E" d="M106.311,69.491l-0.642-0.349c0.148-2.294,0.297-4.588,0.438-6.873l0.642,0.349
							C106.608,64.903,106.459,67.197,106.311,69.491"/>
					</g>
				</g>
				<g>
					<path fill="#A5B2B9" d="M108.083,68.413c-0.385,0.495-0.77,0.99-1.164,1.495c-0.2-0.145-0.408-0.28-0.608-0.416
						c0.148-2.294,0.297-4.588,0.437-6.873c0.552,0.372,1.096,0.745,1.64,1.118C108.289,65.298,108.19,66.859,108.083,68.413z"/>
				</g>
			</g>
			<g enable-background="new    ">
				<g enable-background="new    ">
					<defs>
						<path id="SVGID_55_" enable-background="new    " d="M128.184,63.798l-0.642-0.349c-0.352-0.279-0.711-0.557-1.063-0.835
							l0.642,0.349C127.473,63.241,127.833,63.52,128.184,63.798z"/>
					</defs>
					<clipPath id="SVGID_60_">
						<use xlink:href="#SVGID_55_"  overflow="visible"/>
					</clipPath>
					<g clip-path="url(#SVGID_60_)" enable-background="new    ">
						<path fill="#626A6E" d="M128.184,63.798l-0.642-0.349c-0.352-0.279-0.711-0.557-1.063-0.835l0.642,0.349
							C127.473,63.241,127.833,63.52,128.184,63.798"/>
					</g>
				</g>
				<g>
					<path fill="#A5B2B9" d="M127.45,58.015c0.634-0.711,1.26-1.414,1.894-2.107c-0.157,2.364-0.313,4.738-0.47,7.11
						c-0.233,0.257-0.458,0.522-0.69,0.78c-0.352-0.278-0.711-0.557-1.063-0.835C127.228,61.313,127.343,59.664,127.45,58.015z"/>
				</g>
				<g enable-background="new    ">
					<defs>
						<path id="SVGID_57_" enable-background="new    " d="M127.45,58.015l-0.642-0.349c0.634-0.711,1.26-1.414,1.894-2.107
							l0.642,0.349C128.71,56.602,128.084,57.304,127.45,58.015z"/>
					</defs>
					<clipPath id="SVGID_62_">
						<use xlink:href="#SVGID_57_"  overflow="visible"/>
					</clipPath>
					<g clip-path="url(#SVGID_62_)" enable-background="new    ">
						<path fill="#717A7F" d="M127.45,58.015l-0.642-0.349c0.634-0.711,1.26-1.414,1.894-2.107l0.642,0.349
							C128.71,56.602,128.084,57.304,127.45,58.015"/>
					</g>
				</g>
				<g enable-background="new    ">
					<defs>
						<path id="SVGID_59_" enable-background="new    " d="M127.121,62.962l-0.642-0.349c0.107-1.649,0.222-3.299,0.33-4.947
							l0.642,0.349C127.343,59.664,127.228,61.313,127.121,62.962z"/>
					</defs>
					<clipPath id="SVGID_64_">
						<use xlink:href="#SVGID_59_"  overflow="visible"/>
					</clipPath>
					<g clip-path="url(#SVGID_64_)" enable-background="new    ">
						<path fill="#626A6E" d="M127.121,62.962l-0.642-0.349c0.107-1.649,0.222-3.299,0.33-4.947l0.642,0.349
							C127.343,59.664,127.228,61.313,127.121,62.962"/>
					</g>
				</g>
			</g>
			<g enable-background="new    ">
				<g enable-background="new    ">
					<defs>
						<path id="SVGID_61_" enable-background="new    " d="M126.741,64.727l-0.642-0.349c0.464-0.099,0.929-0.199,1.401-0.3
							l0.642,0.349C127.67,64.527,127.206,64.627,126.741,64.727z"/>
					</defs>
					<clipPath id="SVGID_66_">
						<use xlink:href="#SVGID_61_"  overflow="visible"/>
					</clipPath>
					<g clip-path="url(#SVGID_66_)" enable-background="new    ">
						<path fill="#7D878C" d="M126.741,64.727l-0.642-0.349c0.464-0.099,0.929-0.199,1.401-0.3l0.642,0.349
							C127.67,64.527,127.206,64.627,126.741,64.727"/>
					</g>
				</g>
				<g>
					<path fill="#A5B2B9" d="M120.562,71.88c2.055-2.433,4.117-4.814,6.18-7.153c0.465-0.099,0.929-0.199,1.402-0.3
						c-0.081,0.426-0.162,0.861-0.243,1.288c-2.062,2.304-4.125,4.66-6.179,7.057c-0.409,0.101-0.826,0.211-1.234,0.321
						C120.512,72.69,120.537,72.28,120.562,71.88z"/>
				</g>
				<g enable-background="new    ">
					<defs>
						<path id="SVGID_63_" enable-background="new    " d="M120.562,71.88l-0.642-0.35c2.055-2.433,4.118-4.814,6.18-7.153
							l0.642,0.349C124.679,67.065,122.616,69.447,120.562,71.88z"/>
					</defs>
					<clipPath id="SVGID_68_">
						<use xlink:href="#SVGID_63_"  overflow="visible"/>
					</clipPath>
					<g clip-path="url(#SVGID_68_)" enable-background="new    ">
						<path fill="#6E767B" d="M120.562,71.88l-0.642-0.35c2.055-2.433,4.118-4.814,6.18-7.153l0.642,0.349
							C124.679,67.065,122.616,69.447,120.562,71.88"/>
					</g>
				</g>
				<g enable-background="new    ">
					<defs>
						<path id="SVGID_65_" enable-background="new    " d="M120.487,73.092l-0.642-0.35c0.024-0.401,0.05-0.811,0.074-1.212
							l0.642,0.35C120.537,72.28,120.512,72.69,120.487,73.092z"/>
					</defs>
					<clipPath id="SVGID_70_">
						<use xlink:href="#SVGID_65_"  overflow="visible"/>
					</clipPath>
					<g clip-path="url(#SVGID_70_)" enable-background="new    ">
						<path fill="#626A6E" d="M120.487,73.092l-0.642-0.35c0.024-0.401,0.05-0.811,0.074-1.212l0.642,0.35
							C120.537,72.28,120.512,72.69,120.487,73.092"/>
					</g>
				</g>
				<g enable-background="new    ">
					<defs>
						<path id="SVGID_67_" enable-background="new    " d="M119.22,74.298l-0.642-0.349c-0.272-0.204-0.544-0.417-0.815-0.621
							l0.642,0.349C118.676,73.882,118.948,74.094,119.22,74.298z"/>
					</defs>
					<clipPath id="SVGID_72_">
						<use xlink:href="#SVGID_67_"  overflow="visible"/>
					</clipPath>
					<g clip-path="url(#SVGID_72_)" enable-background="new    ">
						<path fill="#626A6E" d="M119.22,74.298l-0.642-0.349c-0.272-0.204-0.544-0.417-0.815-0.621l0.642,0.349
							C118.676,73.882,118.948,74.094,119.22,74.298"/>
					</g>
				</g>
				<g>
					<path fill="#A5B2B9" d="M119.522,66.537c0.344,0.263,0.688,0.535,1.04,0.796c-0.132,1.955-0.256,3.909-0.388,5.864
						c-0.321,0.365-0.634,0.737-0.955,1.102c-0.272-0.204-0.544-0.416-0.816-0.62c0.14-2.094,0.272-4.187,0.412-6.281
						C119.049,67.113,119.29,66.82,119.522,66.537z"/>
				</g>
				<g enable-background="new    ">
					<defs>
						<path id="SVGID_69_" enable-background="new    " d="M118.404,73.678l-0.642-0.349c0.14-2.094,0.272-4.187,0.412-6.281
							l0.642,0.349C118.676,69.491,118.544,71.584,118.404,73.678z"/>
					</defs>
					<clipPath id="SVGID_74_">
						<use xlink:href="#SVGID_69_"  overflow="visible"/>
					</clipPath>
					<g clip-path="url(#SVGID_74_)" enable-background="new    ">
						<path fill="#626A6E" d="M118.404,73.678l-0.642-0.349c0.14-2.094,0.272-4.187,0.412-6.281l0.642,0.349
							C118.676,69.491,118.544,71.584,118.404,73.678"/>
					</g>
				</g>
				<g enable-background="new    ">
					<defs>
						<path id="SVGID_71_" enable-background="new    " d="M118.816,67.396l-0.642-0.349c0.233-0.283,0.474-0.576,0.707-0.86
							l0.642,0.349C119.29,66.82,119.049,67.113,118.816,67.396z"/>
					</defs>
					<clipPath id="SVGID_76_">
						<use xlink:href="#SVGID_71_"  overflow="visible"/>
					</clipPath>
					<g clip-path="url(#SVGID_76_)" enable-background="new    ">
						<path fill="#6E767B" d="M118.816,67.396l-0.642-0.349c0.233-0.283,0.474-0.576,0.707-0.86l0.642,0.349
							C119.29,66.82,119.049,67.113,118.816,67.396"/>
					</g>
				</g>
				<g enable-background="new    ">
					<defs>
						<path id="SVGID_73_" enable-background="new    " d="M119.563,65.883l-0.642-0.349c-0.208-0.152-0.416-0.305-0.616-0.467
							l0.642,0.349C119.147,65.578,119.355,65.73,119.563,65.883z"/>
					</defs>
					<clipPath id="SVGID_78_">
						<use xlink:href="#SVGID_73_"  overflow="visible"/>
					</clipPath>
					<g clip-path="url(#SVGID_78_)" enable-background="new    ">
						<path fill="#626A6E" d="M119.563,65.883l-0.642-0.349c-0.208-0.152-0.416-0.305-0.616-0.467l0.642,0.349
							C119.147,65.578,119.355,65.73,119.563,65.883"/>
					</g>
				</g>
				<g>
					<path fill="#A5B2B9" d="M120.743,64.498c-0.393,0.461-0.786,0.923-1.18,1.385c-0.208-0.152-0.416-0.305-0.616-0.467
						c0.156-2.39,0.305-4.771,0.461-7.162c0.56,0.423,1.112,0.847,1.664,1.271C120.966,61.183,120.858,62.84,120.743,64.498z"/>
				</g>
				<g enable-background="new    ">
					<defs>
						<path id="SVGID_75_" enable-background="new    " d="M118.948,65.416l-0.642-0.349c0.157-2.39,0.305-4.771,0.462-7.162
							l0.642,0.349C119.253,60.646,119.104,63.026,118.948,65.416z"/>
					</defs>
					<clipPath id="SVGID_80_">
						<use xlink:href="#SVGID_75_"  overflow="visible"/>
					</clipPath>
					<g clip-path="url(#SVGID_80_)" enable-background="new    ">
						<path fill="#626A6E" d="M118.948,65.416l-0.642-0.349c0.157-2.39,0.305-4.771,0.462-7.162l0.642,0.349
							C119.253,60.646,119.104,63.026,118.948,65.416"/>
					</g>
				</g>
			</g>
			<g enable-background="new    ">
				<g enable-background="new    ">
					<defs>
						<path id="SVGID_77_" enable-background="new    " d="M138.423,68.596l-0.642-0.349c0.352-0.049,0.702-0.097,1.052-0.144
							l0.642,0.35C139.125,68.499,138.774,68.546,138.423,68.596z"/>
					</defs>
					<clipPath id="SVGID_82_">
						<use xlink:href="#SVGID_77_"  overflow="visible"/>
					</clipPath>
					<g clip-path="url(#SVGID_82_)" enable-background="new    ">
						<path fill="#7D878C" d="M138.423,68.596l-0.642-0.349c0.352-0.049,0.702-0.097,1.052-0.144l0.642,0.35
							C139.125,68.499,138.774,68.546,138.423,68.596"/>
					</g>
				</g>
				<g enable-background="new    ">
					<defs>
						<path id="SVGID_79_" enable-background="new    " d="M138.593,61.448l-0.642-0.349c0.416-0.059,0.832-0.115,1.249-0.17
							l0.642,0.349C139.424,61.333,139.008,61.39,138.593,61.448z"/>
					</defs>
					<clipPath id="SVGID_84_">
						<use xlink:href="#SVGID_79_"  overflow="visible"/>
					</clipPath>
					<g clip-path="url(#SVGID_84_)" enable-background="new    ">
						<path fill="#7D878C" d="M138.593,61.448l-0.642-0.349c0.416-0.059,0.832-0.115,1.249-0.17l0.642,0.349
							C139.424,61.333,139.008,61.39,138.593,61.448"/>
					</g>
				</g>
				<g enable-background="new    ">
					<defs>
						<path id="SVGID_81_" enable-background="new    " d="M133.339,69.4l-0.642-0.349c1.692-0.295,3.39-0.567,5.084-0.805
							l0.642,0.349C136.729,68.833,135.031,69.105,133.339,69.4z"/>
					</defs>
					<clipPath id="SVGID_86_">
						<use xlink:href="#SVGID_81_"  overflow="visible"/>
					</clipPath>
					<g clip-path="url(#SVGID_86_)" enable-background="new    ">
						<path fill="#7D878C" d="M133.339,69.4l-0.642-0.349c1.692-0.295,3.39-0.567,5.084-0.805l0.642,0.349
							C136.729,68.833,135.031,69.105,133.339,69.4"/>
					</g>
				</g>
				<g>
					<path fill="#A5B2B9" d="M138.423,68.596c0.351-0.049,0.702-0.097,1.052-0.144c0.552,0.493,1.104,0.994,1.655,1.496
						c-0.859,0.107-1.719,0.221-2.577,0.342c-2.366,0.333-4.729,0.718-7.092,1.165c0.626-0.685,1.252-1.369,1.878-2.054
						C135.031,69.105,136.729,68.833,138.423,68.596z"/>
				</g>
				<g enable-background="new    ">
					<defs>
						<path id="SVGID_83_" enable-background="new    " d="M131.461,71.454l-0.642-0.349c0.626-0.685,1.251-1.369,1.877-2.054
							l0.642,0.349C132.713,70.085,132.088,70.77,131.461,71.454z"/>
					</defs>
					<clipPath id="SVGID_88_">
						<use xlink:href="#SVGID_83_"  overflow="visible"/>
					</clipPath>
					<g clip-path="url(#SVGID_88_)" enable-background="new    ">
						<path fill="#717A7F" d="M131.461,71.454l-0.642-0.349c0.626-0.685,1.251-1.369,1.877-2.054l0.642,0.349
							C132.713,70.085,132.088,70.77,131.461,71.454"/>
					</g>
				</g>
				<g enable-background="new    ">
					<defs>
						<path id="SVGID_85_" enable-background="new    " d="M133.609,62.232l-0.642-0.349c1.66-0.289,3.319-0.55,4.983-0.783
							l0.642,0.349C136.929,61.683,135.269,61.943,133.609,62.232z"/>
					</defs>
					<clipPath id="SVGID_90_">
						<use xlink:href="#SVGID_85_"  overflow="visible"/>
					</clipPath>
					<g clip-path="url(#SVGID_90_)" enable-background="new    ">
						<path fill="#7D878C" d="M133.609,62.232l-0.642-0.349c1.66-0.289,3.319-0.55,4.983-0.783l0.642,0.349
							C136.929,61.683,135.269,61.943,133.609,62.232"/>
					</g>
				</g>
				<g enable-background="new    ">
					<defs>
						<path id="SVGID_87_" enable-background="new    " d="M132.67,63.254l-0.642-0.349c0.313-0.346,0.626-0.684,0.939-1.022
							l0.642,0.349C133.296,62.57,132.983,62.907,132.67,63.254z"/>
					</defs>
					<clipPath id="SVGID_92_">
						<use xlink:href="#SVGID_87_"  overflow="visible"/>
					</clipPath>
					<g clip-path="url(#SVGID_92_)" enable-background="new    ">
						<path fill="#717A7F" d="M132.67,63.254l-0.642-0.349c0.313-0.346,0.626-0.684,0.939-1.022l0.642,0.349
							C133.296,62.57,132.983,62.907,132.67,63.254"/>
					</g>
				</g>
				<g>
					<path fill="#A5B2B9" d="M138.593,61.448c0.416-0.058,0.832-0.115,1.249-0.17c0.28,0.246,0.568,0.491,0.848,0.745
						c-0.321,0.322-0.642,0.652-0.963,0.982c-0.417,0.055-0.833,0.112-1.249,0.17c-1.664,0.234-3.324,0.495-4.984,0.783
						c-0.272-0.238-0.552-0.467-0.824-0.706c0.313-0.347,0.626-0.684,0.939-1.022C135.269,61.943,136.929,61.683,138.593,61.448z"/>
				</g>
				<g enable-background="new    ">
					<defs>
						<path id="SVGID_89_" enable-background="new    " d="M133.494,63.959l-0.642-0.349c-0.271-0.238-0.552-0.467-0.824-0.706
							l0.642,0.349C132.942,63.492,133.222,63.721,133.494,63.959z"/>
					</defs>
					<clipPath id="SVGID_94_">
						<use xlink:href="#SVGID_89_"  overflow="visible"/>
					</clipPath>
					<g clip-path="url(#SVGID_94_)" enable-background="new    ">
						<path fill="#626A6E" d="M133.494,63.959l-0.642-0.349c-0.271-0.238-0.552-0.467-0.824-0.706l0.642,0.349
							C132.942,63.492,133.222,63.721,133.494,63.959"/>
					</g>
				</g>
				<g enable-background="new    ">
					<defs>
						<path id="SVGID_91_" enable-background="new    " d="M131.149,71.195l-0.642-0.349c0.148-2.26,0.305-4.52,0.453-6.771
							l0.642,0.349C131.454,66.675,131.298,68.936,131.149,71.195z"/>
					</defs>
					<clipPath id="SVGID_96_">
						<use xlink:href="#SVGID_91_"  overflow="visible"/>
					</clipPath>
					<g clip-path="url(#SVGID_96_)" enable-background="new    ">
						<path fill="#626A6E" d="M131.149,71.195l-0.642-0.349c0.148-2.26,0.305-4.52,0.453-6.771l0.642,0.349
							C131.454,66.675,131.298,68.936,131.149,71.195"/>
					</g>
				</g>
				<g>
					<path fill="#A5B2B9" d="M133.364,64.514c-0.107,1.536-0.206,3.08-0.313,4.617c-0.634,0.686-1.268,1.379-1.902,2.065
						c0.148-2.26,0.305-4.521,0.453-6.771c0.233-0.266,0.474-0.533,0.714-0.8C132.661,63.921,133.013,64.217,133.364,64.514z"/>
				</g>
				<g enable-background="new    ">
					<defs>
						<path id="SVGID_93_" enable-background="new    " d="M131.603,64.424l-0.642-0.349c0.232-0.266,0.473-0.533,0.714-0.8
							l0.642,0.349C132.076,63.891,131.835,64.158,131.603,64.424z"/>
					</defs>
					<clipPath id="SVGID_98_">
						<use xlink:href="#SVGID_93_"  overflow="visible"/>
					</clipPath>
					<g clip-path="url(#SVGID_98_)" enable-background="new    ">
						<path fill="#6E767B" d="M131.603,64.424l-0.642-0.349c0.04-0.046,0.081-0.092,0.122-0.138l0.642,0.349
							C131.684,64.332,131.643,64.378,131.603,64.424"/>
						<path fill="#717A7F" d="M131.725,64.286l-0.642-0.349c0.194-0.22,0.394-0.441,0.592-0.662l0.642,0.349
							C132.118,63.844,131.919,64.065,131.725,64.286"/>
					</g>
				</g>
				<g enable-background="new    ">
					<defs>
						<path id="SVGID_95_" enable-background="new    " d="M132.358,62.979l-0.642-0.349c-0.208-0.179-0.416-0.348-0.624-0.526
							l0.642,0.349C131.942,62.63,132.15,62.8,132.358,62.979z"/>
					</defs>
					<clipPath id="SVGID_100_">
						<use xlink:href="#SVGID_95_"  overflow="visible"/>
					</clipPath>
					<g clip-path="url(#SVGID_100_)" enable-background="new    ">
						<path fill="#626A6E" d="M132.358,62.979l-0.642-0.349c-0.208-0.179-0.416-0.348-0.624-0.526l0.642,0.349
							C131.942,62.63,132.15,62.8,132.358,62.979"/>
					</g>
				</g>
				<g enable-background="new    ">
					<defs>
						<path id="SVGID_97_" enable-background="new    " d="M132.541,55.294l-0.642-0.349c1.977-0.363,3.96-0.684,5.945-0.963
							c1.241-0.175,2.482-0.333,3.724-0.474l0.642,0.349c-1.242,0.141-2.483,0.299-3.724,0.474
							C136.5,54.61,134.518,54.931,132.541,55.294z"/>
					</defs>
					<clipPath id="SVGID_102_">
						<use xlink:href="#SVGID_97_"  overflow="visible"/>
					</clipPath>
					<g clip-path="url(#SVGID_102_)" enable-background="new    ">
						<path fill="#7D878C" d="M132.541,55.294l-0.642-0.349c1.977-0.363,3.96-0.684,5.945-0.963
							c1.241-0.175,2.482-0.333,3.724-0.474l0.642,0.349c-1.242,0.141-2.483,0.299-3.724,0.474
							C136.5,54.61,134.518,54.931,132.541,55.294"/>
					</g>
				</g>
				<g>
					<path fill="#A5B2B9" d="M138.48,56.047c-1.432,0.202-2.862,0.423-4.292,0.667c-0.552-0.475-1.104-0.951-1.647-1.419
						c1.977-0.363,3.96-0.684,5.945-0.963c1.241-0.174,2.482-0.333,3.724-0.474c-0.626,0.641-1.26,1.292-1.886,1.942
						C139.708,55.878,139.094,55.961,138.48,56.047z"/>
				</g>
				<g enable-background="new    ">
					<defs>
						<path id="SVGID_99_" enable-background="new    " d="M134.188,56.713l-0.642-0.349c-0.552-0.475-1.104-0.951-1.647-1.419
							l0.642,0.349C133.084,55.763,133.636,56.238,134.188,56.713z"/>
					</defs>
					<clipPath id="SVGID_104_">
						<use xlink:href="#SVGID_99_"  overflow="visible"/>
					</clipPath>
					<g clip-path="url(#SVGID_104_)" enable-background="new    ">
						<path fill="#626A6E" d="M134.188,56.713l-0.642-0.349c-0.552-0.475-1.104-0.951-1.647-1.419l0.642,0.349
							C133.084,55.763,133.636,56.238,134.188,56.713"/>
					</g>
				</g>
				<g enable-background="new    ">
					<defs>
						<path id="SVGID_101_" enable-background="new    " d="M131.734,62.452l-0.642-0.349c0.148-2.269,0.296-4.528,0.445-6.796
							l0.642,0.35C132.031,57.925,131.883,60.184,131.734,62.452z"/>
					</defs>
					<clipPath id="SVGID_106_">
						<use xlink:href="#SVGID_101_"  overflow="visible"/>
					</clipPath>
					<g clip-path="url(#SVGID_106_)" enable-background="new    ">
						<path fill="#626A6E" d="M131.734,62.452l-0.642-0.349c0.148-2.269,0.296-4.528,0.445-6.796l0.642,0.35
							C132.031,57.925,131.883,60.184,131.734,62.452"/>
					</g>
				</g>
				<g>
					<path fill="#A5B2B9" d="M133.546,61.696c-0.394,0.418-0.794,0.855-1.188,1.282c-0.208-0.179-0.416-0.348-0.624-0.526
						c0.148-2.269,0.297-4.527,0.445-6.796c0.56,0.466,1.12,0.94,1.679,1.415C133.752,58.607,133.653,60.151,133.546,61.696z"/>
				</g>
			</g>
			<g enable-background="new    ">
				<g enable-background="new    ">
					<defs>
						<path id="SVGID_103_" enable-background="new    " d="M146.228,67.702l-0.642-0.349c2.042-0.183,4.101-0.325,6.151-0.415
							l0.642,0.349C150.329,67.376,148.27,67.519,146.228,67.702z"/>
					</defs>
					<clipPath id="SVGID_108_">
						<use xlink:href="#SVGID_103_"  overflow="visible"/>
					</clipPath>
					<g clip-path="url(#SVGID_108_)" enable-background="new    ">
						<path fill="#7D878C" d="M146.228,67.702l-0.642-0.349c2.042-0.183,4.101-0.325,6.151-0.415l0.642,0.349
							C150.329,67.376,148.27,67.519,146.228,67.702"/>
					</g>
				</g>
				<g>
					<path fill="#A5B2B9" d="M152.379,67.287c0.552,0.545,1.104,1.09,1.647,1.644c-3.228,0.117-6.456,0.337-9.691,0.662
						c0.634-0.633,1.26-1.266,1.894-1.891C148.27,67.519,150.329,67.376,152.379,67.287z"/>
				</g>
				<g enable-background="new    ">
					<defs>
						<path id="SVGID_105_" enable-background="new    " d="M144.334,69.593l-0.642-0.349c0.634-0.633,1.26-1.266,1.894-1.891
							l0.642,0.349C145.594,68.327,144.968,68.959,144.334,69.593z"/>
					</defs>
					<clipPath id="SVGID_110_">
						<use xlink:href="#SVGID_105_"  overflow="visible"/>
					</clipPath>
					<g clip-path="url(#SVGID_110_)" enable-background="new    ">
						<path fill="#717A7F" d="M144.334,69.593l-0.642-0.349c0.634-0.633,1.26-1.266,1.894-1.891l0.642,0.349
							C145.594,68.327,144.968,68.959,144.334,69.593"/>
					</g>
				</g>
				<g>
					<path fill="#A5B2B9" d="M146.245,62.807c-0.106,1.537-0.206,3.063-0.312,4.6c-0.634,0.625-1.268,1.259-1.91,1.902
						c0.157-2.252,0.305-4.495,0.453-6.746c0.241-0.241,0.481-0.491,0.714-0.731C145.541,62.154,145.894,62.485,146.245,62.807z"/>
				</g>
				<g enable-background="new    ">
					<defs>
						<path id="SVGID_107_" enable-background="new    " d="M144.022,69.309l-0.642-0.35c0.156-2.252,0.304-4.494,0.453-6.745
							l0.642,0.349C144.327,64.814,144.179,67.056,144.022,69.309z"/>
					</defs>
					<clipPath id="SVGID_112_">
						<use xlink:href="#SVGID_107_"  overflow="visible"/>
					</clipPath>
					<g clip-path="url(#SVGID_112_)" enable-background="new    ">
						<path fill="#626A6E" d="M144.022,69.309l-0.642-0.35c0.156-2.252,0.304-4.494,0.453-6.745l0.642,0.349
							C144.327,64.814,144.179,67.056,144.022,69.309"/>
					</g>
				</g>
				<g enable-background="new    ">
					<defs>
						<path id="SVGID_109_" enable-background="new    " d="M144.476,62.563l-0.642-0.349c0.241-0.241,0.481-0.491,0.714-0.731
							l0.642,0.349C144.957,62.072,144.716,62.322,144.476,62.563z"/>
					</defs>
					<clipPath id="SVGID_114_">
						<use xlink:href="#SVGID_109_"  overflow="visible"/>
					</clipPath>
					<g clip-path="url(#SVGID_114_)" enable-background="new    ">
						<path fill="#717A7F" d="M144.476,62.563l-0.642-0.349c0.241-0.241,0.481-0.491,0.714-0.731l0.642,0.349
							C144.957,62.072,144.716,62.322,144.476,62.563"/>
					</g>
				</g>
			</g>
			<g enable-background="new    ">
				<g enable-background="new    ">
					<defs>
						<path id="SVGID_111_" enable-background="new    " d="M145.231,61.186l-0.642-0.349c-0.208-0.187-0.416-0.382-0.624-0.578
							l0.642,0.349C144.815,60.804,145.023,61,145.231,61.186z"/>
					</defs>
					<clipPath id="SVGID_116_">
						<use xlink:href="#SVGID_111_"  overflow="visible"/>
					</clipPath>
					<g clip-path="url(#SVGID_116_)" enable-background="new    ">
						<path fill="#626A6E" d="M145.231,61.186l-0.642-0.349c-0.208-0.187-0.416-0.382-0.624-0.578l0.642,0.349
							C144.815,60.804,145.023,61,145.231,61.186"/>
					</g>
				</g>
				<g>
					<path fill="#A5B2B9" d="M146.434,60.006c-0.401,0.394-0.802,0.787-1.203,1.18c-0.208-0.187-0.416-0.382-0.624-0.578
						c0.156-2.356,0.313-4.711,0.478-7.06c0.552,0.51,1.12,1.027,1.679,1.553C146.649,56.734,146.542,58.375,146.434,60.006z"/>
				</g>
				<g enable-background="new    ">
					<defs>
						<path id="SVGID_113_" enable-background="new    " d="M144.607,60.608l-0.642-0.349c0.157-2.356,0.313-4.711,0.478-7.06
							l0.642,0.349C144.92,55.897,144.764,58.252,144.607,60.608z"/>
					</defs>
					<clipPath id="SVGID_118_">
						<use xlink:href="#SVGID_113_"  overflow="visible"/>
					</clipPath>
					<g clip-path="url(#SVGID_118_)" enable-background="new    ">
						<path fill="#626A6E" d="M144.607,60.608l-0.642-0.349c0.157-2.356,0.313-4.711,0.478-7.06l0.642,0.349
							C144.92,55.897,144.764,58.252,144.607,60.608"/>
					</g>
				</g>
			</g>
			<g enable-background="new    ">
				<g enable-background="new    ">
					<defs>
						<path id="SVGID_115_" enable-background="new    " d="M166.806,60.722l-0.642-0.35c-0.352-0.374-0.703-0.749-1.062-1.121
							l0.642,0.349C166.103,59.973,166.454,60.348,166.806,60.722z"/>
					</defs>
					<clipPath id="SVGID_120_">
						<use xlink:href="#SVGID_115_"  overflow="visible"/>
					</clipPath>
					<g clip-path="url(#SVGID_120_)" enable-background="new    ">
						<path fill="#626A6E" d="M166.806,60.722l-0.642-0.35c-0.352-0.374-0.703-0.749-1.062-1.121l0.642,0.349
							C166.103,59.973,166.454,60.348,166.806,60.722"/>
					</g>
				</g>
				<g enable-background="new    ">
					<defs>
						<path id="SVGID_117_" enable-background="new    " d="M165.743,59.6l-0.642-0.349c0.107-1.519,0.206-3.037,0.312-4.556
							l0.642,0.349C165.949,56.563,165.85,58.081,165.743,59.6z"/>
					</defs>
					<clipPath id="SVGID_122_">
						<use xlink:href="#SVGID_117_"  overflow="visible"/>
					</clipPath>
					<g clip-path="url(#SVGID_122_)" enable-background="new    ">
						<path fill="#626A6E" d="M165.743,59.6l-0.642-0.349c0.107-1.519,0.206-3.037,0.312-4.556l0.642,0.349
							C165.949,56.563,165.85,58.081,165.743,59.6"/>
					</g>
				</g>
				<g enable-background="new    ">
					<defs>
						<path id="SVGID_119_" enable-background="new    " d="M166.056,55.044l-0.642-0.349c0.313-0.278,0.634-0.556,0.946-0.825
							l0.642,0.349C166.69,54.488,166.369,54.767,166.056,55.044z"/>
					</defs>
					<clipPath id="SVGID_124_">
						<use xlink:href="#SVGID_119_"  overflow="visible"/>
					</clipPath>
					<g clip-path="url(#SVGID_124_)" enable-background="new    ">
						<path fill="#757E83" d="M166.056,55.044l-0.642-0.349c0.313-0.278,0.634-0.556,0.946-0.825l0.642,0.349
							C166.69,54.488,166.369,54.767,166.056,55.044"/>
					</g>
				</g>
				<g>
					<path fill="#A5B2B9" d="M167.002,54.22c0.28,0.306,0.56,0.613,0.839,0.919c-0.115,1.659-0.223,3.316-0.338,4.983
						c-0.232,0.197-0.465,0.402-0.698,0.6c-0.352-0.374-0.704-0.749-1.063-1.122c0.107-1.519,0.206-3.037,0.312-4.556
						C166.369,54.767,166.69,54.488,167.002,54.22z"/>
				</g>
				<g enable-background="new    ">
					<defs>
						<path id="SVGID_121_" enable-background="new    " d="M158.134,60.522l-0.642-0.349c-0.216-0.203-0.423-0.416-0.631-0.628
							l0.642,0.349C157.71,60.106,157.918,60.319,158.134,60.522z"/>
					</defs>
					<clipPath id="SVGID_126_">
						<use xlink:href="#SVGID_121_"  overflow="visible"/>
					</clipPath>
					<g clip-path="url(#SVGID_126_)" enable-background="new    ">
						<path fill="#626A6E" d="M158.134,60.522l-0.642-0.349c-0.216-0.203-0.423-0.416-0.631-0.628l0.642,0.349
							C157.71,60.106,157.918,60.319,158.134,60.522"/>
					</g>
				</g>
				<g enable-background="new    ">
					<defs>
						<path id="SVGID_123_" enable-background="new    " d="M160.078,52.868l-0.642-0.349c1.938,0.013,3.868,0.062,5.797,0.153
							l0.642,0.349C163.945,52.929,162.016,52.88,160.078,52.868z"/>
					</defs>
					<clipPath id="SVGID_128_">
						<use xlink:href="#SVGID_123_"  overflow="visible"/>
					</clipPath>
					<g clip-path="url(#SVGID_128_)" enable-background="new    ">
						<path fill="#7D878C" d="M160.078,52.868l-0.642-0.349c1.938,0.013,3.868,0.062,5.797,0.153l0.642,0.349
							C163.945,52.929,162.016,52.88,160.078,52.868"/>
					</g>
				</g>
				<g>
					<path fill="#A5B2B9" d="M165.76,54.731c-1.93-0.092-3.86-0.141-5.797-0.145c-0.272-0.291-0.552-0.58-0.824-0.87
						c0.313-0.286,0.626-0.563,0.939-0.85c1.938,0.013,3.867,0.062,5.797,0.153c0.28,0.298,0.551,0.588,0.831,0.886
						C166.394,54.184,166.073,54.454,165.76,54.731z"/>
				</g>
				<g enable-background="new    ">
					<defs>
						<path id="SVGID_125_" enable-background="new    " d="M159.963,54.587l-0.642-0.35c-0.272-0.29-0.552-0.579-0.824-0.869
							l0.642,0.349C159.411,54.007,159.691,54.296,159.963,54.587z"/>
					</defs>
					<clipPath id="SVGID_130_">
						<use xlink:href="#SVGID_125_"  overflow="visible"/>
					</clipPath>
					<g clip-path="url(#SVGID_130_)" enable-background="new    ">
						<path fill="#626A6E" d="M159.963,54.587l-0.642-0.35c-0.272-0.29-0.552-0.579-0.824-0.869l0.642,0.349
							C159.411,54.007,159.691,54.296,159.963,54.587"/>
					</g>
				</g>
				<g enable-background="new    ">
					<defs>
						<path id="SVGID_127_" enable-background="new    " d="M159.139,53.717l-0.642-0.349c0.313-0.286,0.626-0.563,0.939-0.85
							l0.642,0.349C159.765,53.154,159.452,53.431,159.139,53.717z"/>
					</defs>
					<clipPath id="SVGID_132_">
						<use xlink:href="#SVGID_127_"  overflow="visible"/>
					</clipPath>
					<g clip-path="url(#SVGID_132_)" enable-background="new    ">
						<path fill="#717A7F" d="M159.139,53.717l-0.642-0.349c0.313-0.286,0.626-0.563,0.939-0.85l0.642,0.349
							C159.765,53.154,159.452,53.431,159.139,53.717"/>
					</g>
				</g>
				<g enable-background="new    ">
					<defs>
						<path id="SVGID_129_" enable-background="new    " d="M157.502,59.894l-0.642-0.349c0.115-1.667,0.222-3.342,0.337-5.009
							l0.642,0.349C157.725,56.552,157.618,58.227,157.502,59.894z"/>
					</defs>
					<clipPath id="SVGID_134_">
						<use xlink:href="#SVGID_129_"  overflow="visible"/>
					</clipPath>
					<g clip-path="url(#SVGID_134_)" enable-background="new    ">
						<path fill="#626A6E" d="M157.502,59.894l-0.642-0.349c0.115-1.667,0.222-3.342,0.337-5.009l0.642,0.349
							C157.725,56.552,157.618,58.227,157.502,59.894"/>
					</g>
				</g>
				<g enable-background="new    ">
					<defs>
						<path id="SVGID_131_" enable-background="new    " d="M157.84,54.885l-0.642-0.349c0.313-0.295,0.626-0.581,0.947-0.876
							l0.642,0.349C158.465,54.304,158.152,54.59,157.84,54.885z"/>
					</defs>
					<clipPath id="SVGID_136_">
						<use xlink:href="#SVGID_131_"  overflow="visible"/>
					</clipPath>
					<g clip-path="url(#SVGID_136_)" enable-background="new    ">
						<path fill="#717A7F" d="M157.84,54.885l-0.642-0.349c0.313-0.295,0.626-0.581,0.947-0.876l0.642,0.349
							C158.465,54.304,158.152,54.59,157.84,54.885"/>
					</g>
				</g>
				<g>
					<path fill="#A5B2B9" d="M159.329,59.447c-0.401,0.359-0.802,0.718-1.195,1.076c-0.216-0.203-0.424-0.416-0.631-0.628
						c0.115-1.667,0.222-3.342,0.337-5.009c0.312-0.294,0.625-0.581,0.946-0.876c0.28,0.289,0.568,0.577,0.848,0.875
						C159.535,56.401,159.428,57.929,159.329,59.447z"/>
				</g>
			</g>
			<g enable-background="new    ">
				<g enable-background="new    ">
					<defs>
						<path id="SVGID_133_" enable-background="new    " d="M166.088,67.841l-0.642-0.35c-0.28-0.306-0.56-0.604-0.839-0.91
							l0.642,0.349C165.529,67.236,165.809,67.534,166.088,67.841z"/>
					</defs>
					<clipPath id="SVGID_138_">
						<use xlink:href="#SVGID_133_"  overflow="visible"/>
					</clipPath>
					<g clip-path="url(#SVGID_138_)" enable-background="new    ">
						<path fill="#626A6E" d="M166.088,67.841l-0.642-0.35c-0.28-0.306-0.56-0.604-0.839-0.91l0.642,0.349
							C165.529,67.236,165.809,67.534,166.088,67.841"/>
					</g>
				</g>
				<g>
					<path fill="#A5B2B9" d="M165.562,62.375c0.401-0.342,0.803-0.675,1.203-1.017c0.208,0.23,0.408,0.461,0.607,0.702
						c-0.107,1.648-0.222,3.307-0.329,4.956c-0.321,0.279-0.642,0.548-0.955,0.826c-0.279-0.307-0.559-0.604-0.839-0.911
						C165.356,65.411,165.455,63.894,165.562,62.375z"/>
				</g>
				<g enable-background="new    ">
					<defs>
						<path id="SVGID_135_" enable-background="new    " d="M165.249,66.93l-0.642-0.349c0.107-1.519,0.206-3.037,0.312-4.556
							l0.642,0.349C165.455,63.894,165.356,65.411,165.249,66.93z"/>
					</defs>
					<clipPath id="SVGID_140_">
						<use xlink:href="#SVGID_135_"  overflow="visible"/>
					</clipPath>
					<g clip-path="url(#SVGID_140_)" enable-background="new    ">
						<path fill="#626A6E" d="M165.249,66.93l-0.642-0.349c0.107-1.519,0.206-3.037,0.312-4.556l0.642,0.349
							C165.455,63.894,165.356,65.411,165.249,66.93"/>
					</g>
				</g>
				<g enable-background="new    ">
					<defs>
						<path id="SVGID_137_" enable-background="new    " d="M165.562,62.375l-0.642-0.349c0.401-0.342,0.802-0.675,1.203-1.017
							l0.642,0.349C166.364,61.699,165.963,62.032,165.562,62.375z"/>
					</defs>
					<clipPath id="SVGID_142_">
						<use xlink:href="#SVGID_137_"  overflow="visible"/>
					</clipPath>
					<g clip-path="url(#SVGID_142_)" enable-background="new    ">
						<path fill="#757E83" d="M165.562,62.375l-0.642-0.349c0.401-0.342,0.802-0.675,1.203-1.017l0.642,0.349
							C166.364,61.699,165.963,62.032,165.562,62.375"/>
					</g>
				</g>
				<g enable-background="new    ">
					<defs>
						<path id="SVGID_139_" enable-background="new    " d="M159.123,67.126l-0.642-0.35c1.93-0.003,3.868,0.036,5.798,0.11
							l0.642,0.349C162.99,67.161,161.053,67.122,159.123,67.126z"/>
					</defs>
					<clipPath id="SVGID_144_">
						<use xlink:href="#SVGID_139_"  overflow="visible"/>
					</clipPath>
					<g clip-path="url(#SVGID_144_)" enable-background="new    ">
						<path fill="#7D878C" d="M159.123,67.126l-0.642-0.35c1.93-0.003,3.868,0.036,5.798,0.11l0.642,0.349
							C162.99,67.161,161.053,67.122,159.123,67.126"/>
					</g>
				</g>
				<g enable-background="new    ">
					<defs>
						<path id="SVGID_141_" enable-background="new    " d="M159.007,68.836l-0.642-0.35c-0.28-0.28-0.551-0.562-0.831-0.833
							l0.642,0.349C158.456,68.273,158.727,68.555,159.007,68.836z"/>
					</defs>
					<clipPath id="SVGID_146_">
						<use xlink:href="#SVGID_141_"  overflow="visible"/>
					</clipPath>
					<g clip-path="url(#SVGID_146_)" enable-background="new    ">
						<path fill="#626A6E" d="M159.007,68.836l-0.642-0.35c-0.28-0.28-0.551-0.562-0.831-0.833l0.642,0.349
							C158.456,68.273,158.727,68.555,159.007,68.836"/>
					</g>
				</g>
				<g>
					<path fill="#A5B2B9" d="M159.123,67.126c1.93-0.004,3.868,0.035,5.797,0.11c0.272,0.307,0.552,0.605,0.823,0.904
						c-0.312,0.269-0.625,0.538-0.938,0.807c-1.93-0.075-3.868-0.113-5.797-0.11c-0.28-0.281-0.552-0.562-0.832-0.834
						C158.489,67.707,158.801,67.413,159.123,67.126z"/>
				</g>
				<g enable-background="new    ">
					<defs>
						<path id="SVGID_143_" enable-background="new    " d="M158.176,68.002l-0.642-0.349c0.313-0.295,0.625-0.589,0.946-0.876
							l0.642,0.35C158.801,67.413,158.489,67.707,158.176,68.002z"/>
					</defs>
					<clipPath id="SVGID_148_">
						<use xlink:href="#SVGID_143_"  overflow="visible"/>
					</clipPath>
					<g clip-path="url(#SVGID_148_)" enable-background="new    ">
						<path fill="#717A7F" d="M158.176,68.002l-0.642-0.349c0.291-0.274,0.582-0.548,0.879-0.816l0.642,0.349
							C158.758,67.454,158.467,67.728,158.176,68.002"/>
						<path fill="#757E83" d="M159.055,67.186l-0.642-0.349c0.022-0.02,0.044-0.04,0.067-0.061l0.642,0.35
							C159.1,67.146,159.078,67.166,159.055,67.186"/>
					</g>
				</g>
				<g enable-background="new    ">
					<defs>
						<path id="SVGID_145_" enable-background="new    " d="M157.864,67.683l-0.642-0.349c-0.28-0.29-0.551-0.58-0.831-0.86
							l0.642,0.349C157.312,67.104,157.584,67.394,157.864,67.683z"/>
					</defs>
					<clipPath id="SVGID_150_">
						<use xlink:href="#SVGID_145_"  overflow="visible"/>
					</clipPath>
					<g clip-path="url(#SVGID_150_)" enable-background="new    ">
						<path fill="#626A6E" d="M157.864,67.683l-0.642-0.349c-0.28-0.29-0.551-0.58-0.831-0.86l0.642,0.349
							C157.312,67.104,157.584,67.394,157.864,67.683"/>
					</g>
				</g>
				<g>
					<path fill="#A5B2B9" d="M159.14,62.24c-0.107,1.519-0.206,3.045-0.313,4.564c-0.321,0.295-0.642,0.583-0.962,0.879
						c-0.28-0.29-0.552-0.58-0.832-0.86c0.115-1.658,0.23-3.326,0.338-4.983c0.241-0.224,0.481-0.448,0.714-0.67
						C158.436,61.526,158.788,61.883,159.14,62.24z"/>
				</g>
				<g enable-background="new    ">
					<defs>
						<path id="SVGID_147_" enable-background="new    " d="M157.033,66.823l-0.642-0.349c0.115-1.658,0.23-3.326,0.337-4.983
							l0.642,0.349C157.263,63.497,157.148,65.165,157.033,66.823z"/>
					</defs>
					<clipPath id="SVGID_152_">
						<use xlink:href="#SVGID_147_"  overflow="visible"/>
					</clipPath>
					<g clip-path="url(#SVGID_152_)" enable-background="new    ">
						<path fill="#626A6E" d="M157.033,66.823l-0.642-0.349c0.115-1.658,0.23-3.326,0.337-4.983l0.642,0.349
							C157.263,63.497,157.148,65.165,157.033,66.823"/>
					</g>
				</g>
				<g enable-background="new    ">
					<defs>
						<path id="SVGID_149_" enable-background="new    " d="M157.371,61.84l-0.642-0.349c0.241-0.224,0.481-0.448,0.714-0.67
							l0.642,0.349C157.852,61.392,157.611,61.616,157.371,61.84z"/>
					</defs>
					<clipPath id="SVGID_154_">
						<use xlink:href="#SVGID_149_"  overflow="visible"/>
					</clipPath>
					<g clip-path="url(#SVGID_154_)" enable-background="new    ">
						<path fill="#717A7F" d="M157.371,61.84l-0.642-0.349c0.241-0.224,0.481-0.448,0.714-0.67l0.642,0.349
							C157.852,61.392,157.611,61.616,157.371,61.84"/>
					</g>
				</g>
			</g>
			<g enable-background="new    ">
				<g enable-background="new    ">
					<defs>
						<path id="SVGID_151_" enable-background="new    " d="M179.593,61.967l-0.642-0.349c-0.352-0.409-0.703-0.809-1.055-1.218
							l0.642,0.349C178.89,61.158,179.241,61.558,179.593,61.967z"/>
					</defs>
					<clipPath id="SVGID_156_">
						<use xlink:href="#SVGID_151_"  overflow="visible"/>
					</clipPath>
					<g clip-path="url(#SVGID_156_)" enable-background="new    ">
						<path fill="#626A6E" d="M179.593,61.967l-0.642-0.349c-0.352-0.409-0.703-0.809-1.055-1.218l0.642,0.349
							C178.89,61.158,179.241,61.558,179.593,61.967"/>
					</g>
				</g>
				<g enable-background="new    ">
					<defs>
						<path id="SVGID_153_" enable-background="new    " d="M178.538,60.749l-0.642-0.349c0.099-1.509,0.206-3.02,0.305-4.529
							l0.642,0.349C178.744,57.729,178.638,59.24,178.538,60.749z"/>
					</defs>
					<clipPath id="SVGID_158_">
						<use xlink:href="#SVGID_153_"  overflow="visible"/>
					</clipPath>
					<g clip-path="url(#SVGID_158_)" enable-background="new    ">
						<path fill="#626A6E" d="M178.538,60.749l-0.642-0.349c0.099-1.509,0.206-3.02,0.305-4.529l0.642,0.349
							C178.744,57.729,178.638,59.24,178.538,60.749"/>
					</g>
				</g>
				<g>
					<path fill="#A5B2B9" d="M179.789,55.482c0.272,0.333,0.552,0.657,0.823,0.99c-0.107,1.649-0.222,3.308-0.33,4.957
						c-0.232,0.179-0.465,0.359-0.689,0.538c-0.352-0.409-0.704-0.809-1.055-1.218c0.1-1.509,0.206-3.02,0.305-4.529
						C179.156,55.978,179.477,55.725,179.789,55.482z"/>
				</g>
				<g enable-background="new    ">
					<defs>
						<path id="SVGID_155_" enable-background="new    " d="M178.843,56.22l-0.642-0.349c0.312-0.243,0.633-0.495,0.946-0.738
							l0.642,0.349C179.477,55.725,179.156,55.978,178.843,56.22z"/>
					</defs>
					<clipPath id="SVGID_160_">
						<use xlink:href="#SVGID_155_"  overflow="visible"/>
					</clipPath>
					<g clip-path="url(#SVGID_160_)" enable-background="new    ">
						<path fill="#757E83" d="M178.843,56.22l-0.642-0.349c0.312-0.243,0.633-0.495,0.946-0.738l0.642,0.349
							C179.477,55.725,179.156,55.978,178.843,56.22"/>
					</g>
				</g>
				<g enable-background="new    ">
					<defs>
						<path id="SVGID_157_" enable-background="new    " d="M172.228,60.582l-0.642-0.349c2.065,0.194,4.123,0.423,6.181,0.696
							l0.642,0.349C176.352,61.005,174.294,60.775,172.228,60.582z"/>
					</defs>
					<clipPath id="SVGID_162_">
						<use xlink:href="#SVGID_157_"  overflow="visible"/>
					</clipPath>
					<g clip-path="url(#SVGID_162_)" enable-background="new    ">
						<path fill="#7D878C" d="M172.228,60.582l-0.642-0.349c2.065,0.194,4.123,0.423,6.181,0.696l0.642,0.349
							C176.352,61.005,174.294,60.775,172.228,60.582"/>
					</g>
				</g>
				<g enable-background="new    ">
					<defs>
						<path id="SVGID_159_" enable-background="new    " d="M171.29,61.362l-0.642-0.349c0.313-0.26,0.626-0.52,0.939-0.78
							l0.642,0.349C171.915,60.842,171.603,61.102,171.29,61.362z"/>
					</defs>
					<clipPath id="SVGID_164_">
						<use xlink:href="#SVGID_159_"  overflow="visible"/>
					</clipPath>
					<g clip-path="url(#SVGID_164_)" enable-background="new    ">
						<path fill="#757E83" d="M171.29,61.362l-0.642-0.349c0.313-0.26,0.626-0.52,0.939-0.78l0.642,0.349
							C171.915,60.842,171.603,61.102,171.29,61.362"/>
					</g>
				</g>
				<g>
					<path fill="#A5B2B9" d="M172.228,60.582c2.066,0.194,4.124,0.423,6.181,0.696c0.28,0.324,0.56,0.647,0.839,0.971
						c-0.321,0.244-0.634,0.487-0.955,0.73c-2.058-0.272-4.115-0.502-6.181-0.687c-0.272-0.316-0.551-0.623-0.823-0.93
						C171.603,61.102,171.915,60.842,172.228,60.582z"/>
				</g>
				<g enable-background="new    ">
					<defs>
						<path id="SVGID_161_" enable-background="new    " d="M172.113,62.292l-0.642-0.35c-0.272-0.315-0.552-0.623-0.824-0.93
							l0.642,0.349C171.562,61.669,171.841,61.976,172.113,62.292z"/>
					</defs>
					<clipPath id="SVGID_166_">
						<use xlink:href="#SVGID_161_"  overflow="visible"/>
					</clipPath>
					<g clip-path="url(#SVGID_166_)" enable-background="new    ">
						<path fill="#626A6E" d="M172.113,62.292l-0.642-0.35c-0.272-0.315-0.552-0.623-0.824-0.93l0.642,0.349
							C171.562,61.669,171.841,61.976,172.113,62.292"/>
					</g>
				</g>
				<g>
					<path fill="#A5B2B9" d="M170.231,62.245c0.233-0.206,0.473-0.403,0.706-0.609c0.352,0.392,0.696,0.775,1.047,1.167
						c-0.107,1.623-0.223,3.247-0.33,4.861c-0.633,0.521-1.268,1.042-1.901,1.563C169.918,66.905,170.074,64.575,170.231,62.245z"/>
				</g>
				<g enable-background="new    ">
					<defs>
						<path id="SVGID_163_" enable-background="new    " d="M170.231,62.245l-0.642-0.349c0.233-0.206,0.474-0.403,0.706-0.609
							l0.642,0.349C170.704,61.842,170.464,62.04,170.231,62.245z"/>
					</defs>
					<clipPath id="SVGID_168_">
						<use xlink:href="#SVGID_163_"  overflow="visible"/>
					</clipPath>
					<g clip-path="url(#SVGID_168_)" enable-background="new    ">
						<path fill="#757E83" d="M170.231,62.245l-0.642-0.349c0.233-0.206,0.474-0.403,0.706-0.609l0.642,0.349
							C170.704,61.842,170.464,62.04,170.231,62.245"/>
					</g>
				</g>
				<g enable-background="new    ">
					<defs>
						<path id="SVGID_165_" enable-background="new    " d="M169.753,69.227l-0.642-0.349c0.165-2.322,0.321-4.652,0.478-6.982
							l0.642,0.349C170.074,64.575,169.918,66.905,169.753,69.227z"/>
					</defs>
					<clipPath id="SVGID_170_">
						<use xlink:href="#SVGID_165_"  overflow="visible"/>
					</clipPath>
					<g clip-path="url(#SVGID_170_)" enable-background="new    ">
						<path fill="#626A6E" d="M169.753,69.227l-0.642-0.349c0.165-2.322,0.321-4.652,0.478-6.982l0.642,0.349
							C170.074,64.575,169.918,66.905,169.753,69.227"/>
					</g>
				</g>
				<g enable-background="new    ">
					<defs>
						<path id="SVGID_167_" enable-background="new    " d="M170.978,61l-0.642-0.349c-0.208-0.23-0.416-0.46-0.623-0.69
							l0.642,0.349C170.562,60.539,170.77,60.77,170.978,61z"/>
					</defs>
					<clipPath id="SVGID_172_">
						<use xlink:href="#SVGID_167_"  overflow="visible"/>
					</clipPath>
					<g clip-path="url(#SVGID_172_)" enable-background="new    ">
						<path fill="#626A6E" d="M170.978,61l-0.642-0.349c-0.208-0.23-0.416-0.46-0.623-0.69l0.642,0.349
							C170.562,60.539,170.77,60.77,170.978,61"/>
					</g>
				</g>
				<g>
					<path fill="#A5B2B9" d="M178.556,55.88c-1.914-0.258-3.828-0.473-5.749-0.661c-0.551-0.623-1.095-1.238-1.646-1.861
						c2.514,0.208,5.012,0.489,7.51,0.829c0.271,0.316,0.543,0.641,0.815,0.957C179.181,55.386,178.868,55.638,178.556,55.88z"/>
				</g>
				<g enable-background="new    ">
					<defs>
						<path id="SVGID_169_" enable-background="new    " d="M172.807,55.219l-0.642-0.349c-0.552-0.623-1.095-1.238-1.646-1.861
							l0.642,0.349C171.712,53.981,172.255,54.597,172.807,55.219z"/>
					</defs>
					<clipPath id="SVGID_174_">
						<use xlink:href="#SVGID_169_"  overflow="visible"/>
					</clipPath>
					<g clip-path="url(#SVGID_174_)" enable-background="new    ">
						<path fill="#626A6E" d="M172.807,55.219l-0.642-0.349c-0.552-0.623-1.095-1.238-1.646-1.861l0.642,0.349
							C171.712,53.981,172.255,54.597,172.807,55.219"/>
					</g>
				</g>
				<g enable-background="new    ">
					<defs>
						<path id="SVGID_171_" enable-background="new    " d="M171.161,53.358l-0.642-0.349c2.514,0.208,5.012,0.489,7.51,0.829
							l0.642,0.35C176.173,53.847,173.675,53.567,171.161,53.358z"/>
					</defs>
					<clipPath id="SVGID_176_">
						<use xlink:href="#SVGID_171_"  overflow="visible"/>
					</clipPath>
					<g clip-path="url(#SVGID_176_)" enable-background="new    ">
						<path fill="#7D878C" d="M171.161,53.358l-0.642-0.349c2.514,0.208,5.012,0.489,7.51,0.829l0.642,0.35
							C176.173,53.847,173.675,53.567,171.161,53.358"/>
					</g>
				</g>
				<g>
					<path fill="#A5B2B9" d="M172.173,60.028c-0.401,0.324-0.794,0.647-1.196,0.972c-0.208-0.23-0.415-0.46-0.623-0.69
						c0.156-2.226,0.305-4.451,0.453-6.676c0.56,0.613,1.111,1.235,1.67,1.857C172.371,57,172.272,58.519,172.173,60.028z"/>
				</g>
				<g enable-background="new    ">
					<defs>
						<path id="SVGID_173_" enable-background="new    " d="M170.354,60.309l-0.642-0.349c0.156-2.226,0.305-4.451,0.453-6.676
							l0.642,0.349C170.659,55.858,170.511,58.083,170.354,60.309z"/>
					</defs>
					<clipPath id="SVGID_178_">
						<use xlink:href="#SVGID_173_"  overflow="visible"/>
					</clipPath>
					<g clip-path="url(#SVGID_178_)" enable-background="new    ">
						<path fill="#626A6E" d="M170.354,60.309l-0.642-0.349c0.156-2.226,0.305-4.451,0.453-6.676l0.642,0.349
							C170.659,55.858,170.511,58.083,170.354,60.309"/>
					</g>
				</g>
			</g>
			<g enable-background="new    ">
				<g enable-background="new    ">
					<defs>
						<path id="SVGID_175_" enable-background="new    " d="M184.688,69.401l-0.642-0.349c2.018,0.365,4.019,0.775,6.012,1.221
							l0.642,0.349C188.708,70.176,186.706,69.766,184.688,69.401z"/>
					</defs>
					<clipPath id="SVGID_180_">
						<use xlink:href="#SVGID_175_"  overflow="visible"/>
					</clipPath>
					<g clip-path="url(#SVGID_180_)" enable-background="new    ">
						<path fill="#7D878C" d="M184.688,69.401l-0.642-0.349c2.018,0.365,4.019,0.775,6.012,1.221l0.642,0.349
							C188.708,70.176,186.706,69.766,184.688,69.401"/>
					</g>
				</g>
				<g>
					<path fill="#A5B2B9" d="M184.688,69.401c2.018,0.365,4.019,0.775,6.013,1.221c0.535,0.694,1.078,1.387,1.613,2.09
						c-3.138-0.751-6.3-1.388-9.479-1.917C183.462,70.326,184.079,69.859,184.688,69.401z"/>
				</g>
				<g enable-background="new    ">
					<defs>
						<path id="SVGID_177_" enable-background="new    " d="M182.836,70.794l-0.642-0.349c0.625-0.468,1.243-0.936,1.853-1.393
							l0.642,0.349C184.079,69.859,183.462,70.326,182.836,70.794z"/>
					</defs>
					<clipPath id="SVGID_182_">
						<use xlink:href="#SVGID_177_"  overflow="visible"/>
					</clipPath>
					<g clip-path="url(#SVGID_182_)" enable-background="new    ">
						<path fill="#757E83" d="M182.836,70.794l-0.642-0.349c0.625-0.468,1.243-0.936,1.853-1.393l0.642,0.349
							C184.079,69.859,183.462,70.326,182.836,70.794"/>
					</g>
				</g>
				<g enable-background="new    ">
					<defs>
						<path id="SVGID_179_" enable-background="new    " d="M184.95,62.32l-0.642-0.349c2.042,0.37,4.075,0.793,6.1,1.251
							l0.642,0.349C189.025,63.113,186.991,62.69,184.95,62.32z"/>
					</defs>
					<clipPath id="SVGID_184_">
						<use xlink:href="#SVGID_179_"  overflow="visible"/>
					</clipPath>
					<g clip-path="url(#SVGID_184_)" enable-background="new    ">
						<path fill="#7D878C" d="M184.95,62.32l-0.642-0.349c2.042,0.37,4.075,0.793,6.1,1.251l0.642,0.349
							C189.025,63.113,186.991,62.69,184.95,62.32"/>
					</g>
				</g>
				<g enable-background="new    ">
					<defs>
						<path id="SVGID_181_" enable-background="new    " d="M184.843,64.012l-0.642-0.349c-0.272-0.333-0.543-0.667-0.815-1
							l0.642,0.349C184.299,63.345,184.571,63.679,184.843,64.012z"/>
					</defs>
					<clipPath id="SVGID_186_">
						<use xlink:href="#SVGID_181_"  overflow="visible"/>
					</clipPath>
					<g clip-path="url(#SVGID_186_)" enable-background="new    ">
						<path fill="#626A6E" d="M184.843,64.012l-0.642-0.349c-0.272-0.333-0.543-0.667-0.815-1l0.642,0.349
							C184.299,63.345,184.571,63.679,184.843,64.012"/>
					</g>
				</g>
				<g enable-background="new    ">
					<defs>
						<path id="SVGID_183_" enable-background="new    " d="M184.028,63.012l-0.642-0.349c0.313-0.234,0.617-0.467,0.922-0.691
							l0.642,0.349C184.646,62.544,184.341,62.778,184.028,63.012z"/>
					</defs>
					<clipPath id="SVGID_188_">
						<use xlink:href="#SVGID_183_"  overflow="visible"/>
					</clipPath>
					<g clip-path="url(#SVGID_188_)" enable-background="new    ">
						<path fill="#757E83" d="M184.028,63.012l-0.642-0.349c0.313-0.234,0.617-0.467,0.922-0.691l0.642,0.349
							C184.646,62.544,184.341,62.778,184.028,63.012"/>
					</g>
				</g>
				<g>
					<path fill="#A5B2B9" d="M184.95,62.32c2.041,0.37,4.075,0.793,6.1,1.251c0.279,0.35,0.559,0.699,0.831,1.05
						c-0.312,0.208-0.625,0.425-0.938,0.642c-2.025-0.467-4.059-0.881-6.1-1.251c-0.271-0.333-0.543-0.667-0.815-1
						C184.341,62.778,184.646,62.544,184.95,62.32z"/>
				</g>
				<g>
					<path fill="#A5B2B9" d="M184.714,64.514c-0.107,1.502-0.206,3.011-0.305,4.521c-0.625,0.459-1.251,0.919-1.876,1.387
						c0.148-2.208,0.296-4.416,0.445-6.623c0.232-0.179,0.465-0.359,0.706-0.54C184.027,63.677,184.37,64.096,184.714,64.514z"/>
				</g>
				<g enable-background="new    ">
					<defs>
						<path id="SVGID_185_" enable-background="new    " d="M182.978,63.799l-0.642-0.349c0.233-0.179,0.465-0.359,0.706-0.54
							l0.642,0.349C183.442,63.439,183.21,63.62,182.978,63.799z"/>
					</defs>
					<clipPath id="SVGID_190_">
						<use xlink:href="#SVGID_185_"  overflow="visible"/>
					</clipPath>
					<g clip-path="url(#SVGID_190_)" enable-background="new    ">
						<path fill="#757E83" d="M182.978,63.799l-0.642-0.349c0.233-0.179,0.465-0.359,0.706-0.54l0.642,0.349
							C183.442,63.439,183.21,63.62,182.978,63.799"/>
					</g>
				</g>
				<g enable-background="new    ">
					<defs>
						<path id="SVGID_187_" enable-background="new    " d="M182.533,70.422l-0.642-0.349c0.148-2.208,0.296-4.416,0.445-6.623
							l0.642,0.349C182.829,66.006,182.681,68.214,182.533,70.422z"/>
					</defs>
					<clipPath id="SVGID_192_">
						<use xlink:href="#SVGID_187_"  overflow="visible"/>
					</clipPath>
					<g clip-path="url(#SVGID_192_)" enable-background="new    ">
						<path fill="#626A6E" d="M182.533,70.422l-0.642-0.349c0.148-2.208,0.296-4.416,0.445-6.623l0.642,0.349
							C182.829,66.006,182.681,68.214,182.533,70.422"/>
					</g>
				</g>
				<g enable-background="new    ">
					<defs>
						<path id="SVGID_189_" enable-background="new    " d="M183.724,62.622l-0.642-0.349c-0.208-0.247-0.415-0.495-0.615-0.743
							l0.642,0.349C183.309,62.127,183.517,62.375,183.724,62.622z"/>
					</defs>
					<clipPath id="SVGID_194_">
						<use xlink:href="#SVGID_189_"  overflow="visible"/>
					</clipPath>
					<g clip-path="url(#SVGID_194_)" enable-background="new    ">
						<path fill="#626A6E" d="M183.724,62.622l-0.642-0.349c-0.208-0.247-0.415-0.495-0.615-0.743l0.642,0.349
							C183.309,62.127,183.517,62.375,183.724,62.622"/>
					</g>
				</g>
				<g enable-background="new    ">
					<defs>
						<path id="SVGID_191_" enable-background="new    " d="M183.898,55l-0.642-0.349c3.17,0.557,6.324,1.22,9.462,1.989
							l0.643,0.349C190.223,56.22,187.069,55.557,183.898,55z"/>
					</defs>
					<clipPath id="SVGID_196_">
						<use xlink:href="#SVGID_191_"  overflow="visible"/>
					</clipPath>
					<g clip-path="url(#SVGID_196_)" enable-background="new    ">
						<path fill="#7D878C" d="M183.898,55l-0.642-0.349c3.17,0.557,6.324,1.22,9.462,1.989l0.643,0.349
							C190.223,56.22,187.069,55.557,183.898,55"/>
					</g>
				</g>
				<g>
					<path fill="#A5B2B9" d="M191.524,58.268c-1.993-0.464-3.995-0.882-6.004-1.266c-0.535-0.668-1.079-1.335-1.622-2.002
						c3.17,0.557,6.324,1.22,9.463,1.989C192.751,57.412,192.134,57.836,191.524,58.268z"/>
				</g>
				<g enable-background="new    ">
					<defs>
						<path id="SVGID_193_" enable-background="new    " d="M185.521,57.002l-0.642-0.349c-0.535-0.668-1.079-1.335-1.622-2.002
							L183.898,55C184.442,55.667,184.985,56.334,185.521,57.002z"/>
					</defs>
					<clipPath id="SVGID_198_">
						<use xlink:href="#SVGID_193_"  overflow="visible"/>
					</clipPath>
					<g clip-path="url(#SVGID_198_)" enable-background="new    ">
						<path fill="#626A6E" d="M185.521,57.002l-0.642-0.349c-0.535-0.668-1.079-1.335-1.622-2.002L183.898,55
							C184.442,55.667,184.985,56.334,185.521,57.002"/>
					</g>
				</g>
				<g enable-background="new    ">
					<defs>
						<path id="SVGID_195_" enable-background="new    " d="M183.109,61.879l-0.642-0.349c0.148-2.216,0.296-4.433,0.444-6.649
							l0.642,0.349C183.406,57.446,183.257,59.662,183.109,61.879z"/>
					</defs>
					<clipPath id="SVGID_200_">
						<use xlink:href="#SVGID_195_"  overflow="visible"/>
					</clipPath>
					<g clip-path="url(#SVGID_200_)" enable-background="new    ">
						<path fill="#626A6E" d="M183.109,61.879l-0.642-0.349c0.148-2.216,0.296-4.433,0.444-6.649l0.642,0.349
							C183.406,57.446,183.257,59.662,183.109,61.879"/>
					</g>
				</g>
				<g>
					<path fill="#A5B2B9" d="M184.895,61.758c-0.393,0.288-0.786,0.577-1.171,0.864c-0.208-0.247-0.416-0.495-0.615-0.743
						c0.148-2.217,0.297-4.433,0.445-6.649c0.543,0.667,1.095,1.342,1.646,2.016C185.101,58.746,184.994,60.257,184.895,61.758z"/>
				</g>
			</g>
			<g enable-background="new    ">
				<g enable-background="new    ">
					<defs>
						<path id="SVGID_197_" enable-background="new    " d="M204.632,67.93l-0.642-0.349c-0.336-0.472-0.679-0.942-1.015-1.414
							l0.643,0.349C203.953,66.988,204.297,67.458,204.632,67.93z"/>
					</defs>
					<clipPath id="SVGID_202_">
						<use xlink:href="#SVGID_197_"  overflow="visible"/>
					</clipPath>
					<g clip-path="url(#SVGID_202_)" enable-background="new    ">
						<path fill="#626A6E" d="M204.632,67.93l-0.642-0.349c-0.336-0.472-0.679-0.942-1.015-1.414l0.643,0.349
							C203.953,66.988,204.297,67.458,204.632,67.93"/>
					</g>
				</g>
				<g>
					<path fill="#A5B2B9" d="M204.82,61.481c0.264,0.377,0.535,0.754,0.799,1.141c-0.107,1.631-0.215,3.263-0.321,4.895
						c-0.225,0.135-0.441,0.278-0.666,0.414c-0.335-0.472-0.679-0.942-1.014-1.414c0.09-1.491,0.189-2.983,0.288-4.475
						C204.211,61.852,204.516,61.663,204.82,61.481z"/>
				</g>
				<g enable-background="new    ">
					<defs>
						<path id="SVGID_199_" enable-background="new    " d="M203.906,62.042l-0.643-0.349c0.306-0.189,0.61-0.379,0.915-0.56
							l0.642,0.349C204.516,61.663,204.211,61.852,203.906,62.042z"/>
					</defs>
					<clipPath id="SVGID_204_">
						<use xlink:href="#SVGID_199_"  overflow="visible"/>
					</clipPath>
					<g clip-path="url(#SVGID_204_)" enable-background="new    ">
						<path fill="#798388" d="M203.906,62.042l-0.643-0.349c0.306-0.189,0.61-0.379,0.915-0.56l0.642,0.349
							C204.516,61.663,204.211,61.852,203.906,62.042"/>
					</g>
				</g>
				<g enable-background="new    ">
					<defs>
						<path id="SVGID_201_" enable-background="new    " d="M203.618,66.517l-0.643-0.349c0.091-1.491,0.19-2.983,0.288-4.475
							l0.643,0.349C203.808,63.534,203.708,65.026,203.618,66.517z"/>
					</defs>
					<clipPath id="SVGID_206_">
						<use xlink:href="#SVGID_201_"  overflow="visible"/>
					</clipPath>
					<g clip-path="url(#SVGID_206_)" enable-background="new    ">
						<path fill="#626A6E" d="M203.618,66.517l-0.643-0.349c0.091-1.491,0.19-2.983,0.288-4.475l0.643,0.349
							C203.808,63.534,203.708,65.026,203.618,66.517"/>
					</g>
				</g>
				<g enable-background="new    ">
					<defs>
						<path id="SVGID_203_" enable-background="new    " d="M203.513,75.884l-0.642-0.35c-1.71-2.396-3.436-4.755-5.161-7.088
							l0.642,0.349C200.078,71.128,201.803,73.488,203.513,75.884z"/>
					</defs>
					<clipPath id="SVGID_208_">
						<use xlink:href="#SVGID_203_"  overflow="visible"/>
					</clipPath>
					<g clip-path="url(#SVGID_208_)" enable-background="new    ">
						<path fill="#626A6E" d="M203.513,75.884l-0.642-0.35c-1.71-2.396-3.436-4.755-5.161-7.088l0.642,0.349
							C200.078,71.128,201.803,73.488,203.513,75.884"/>
					</g>
				</g>
				<g>
					<path fill="#A5B2B9" d="M198.442,67.624c0.408,0.115,0.816,0.231,1.217,0.356c1.726,2.333,3.435,4.712,5.136,7.118
						c-0.025,0.401-0.049,0.793-0.074,1.186c-0.4-0.134-0.809-0.267-1.208-0.401c-1.71-2.396-3.435-4.756-5.161-7.088
						C198.385,68.41,198.41,68.018,198.442,67.624z"/>
				</g>
				<g enable-background="new    ">
					<defs>
						<path id="SVGID_205_" enable-background="new    " d="M198.442,67.624l-0.643-0.349c0.408,0.115,0.816,0.231,1.217,0.356
							l0.643,0.349C199.259,67.855,198.851,67.739,198.442,67.624z"/>
					</defs>
					<clipPath id="SVGID_210_">
						<use xlink:href="#SVGID_205_"  overflow="visible"/>
					</clipPath>
					<g clip-path="url(#SVGID_210_)" enable-background="new    ">
						<path fill="#798388" d="M198.442,67.624l-0.643-0.349c0.408,0.115,0.816,0.231,1.217,0.356l0.643,0.349
							C199.259,67.855,198.851,67.739,198.442,67.624"/>
					</g>
				</g>
				<g enable-background="new    ">
					<defs>
						<path id="SVGID_207_" enable-background="new    " d="M198.352,68.795l-0.642-0.349c0.033-0.385,0.059-0.778,0.09-1.171
							l0.643,0.349C198.41,68.018,198.385,68.41,198.352,68.795z"/>
					</defs>
					<clipPath id="SVGID_212_">
						<use xlink:href="#SVGID_207_"  overflow="visible"/>
					</clipPath>
					<g clip-path="url(#SVGID_212_)" enable-background="new    ">
						<path fill="#626A6E" d="M198.352,68.795l-0.642-0.349c0.033-0.385,0.059-0.778,0.09-1.171l0.643,0.349
							C198.41,68.018,198.385,68.41,198.352,68.795"/>
					</g>
				</g>
				<g enable-background="new    ">
					<defs>
						<path id="SVGID_209_" enable-background="new    " d="M197.494,65.208l-0.642-0.349c2.009,0.556,4.01,1.165,5.994,1.82
							l0.642,0.349C201.504,66.373,199.503,65.764,197.494,65.208z"/>
					</defs>
					<clipPath id="SVGID_214_">
						<use xlink:href="#SVGID_209_"  overflow="visible"/>
					</clipPath>
					<g clip-path="url(#SVGID_214_)" enable-background="new    ">
						<path fill="#798388" d="M197.494,65.208l-0.642-0.349c2.009,0.556,4.01,1.165,5.994,1.82l0.642,0.349
							C201.504,66.373,199.503,65.764,197.494,65.208"/>
					</g>
				</g>
				<g enable-background="new    ">
					<defs>
						<path id="SVGID_211_" enable-background="new    " d="M196.588,65.811l-0.643-0.35c0.305-0.198,0.61-0.405,0.907-0.603
							l0.642,0.349C197.197,65.405,196.893,65.612,196.588,65.811z"/>
					</defs>
					<clipPath id="SVGID_216_">
						<use xlink:href="#SVGID_211_"  overflow="visible"/>
					</clipPath>
					<g clip-path="url(#SVGID_216_)" enable-background="new    ">
						<path fill="#798388" d="M196.588,65.811l-0.643-0.35c0.305-0.198,0.61-0.405,0.907-0.603l0.642,0.349
							C197.197,65.405,196.893,65.612,196.588,65.811"/>
					</g>
				</g>
				<g>
					<path fill="#A5B2B9" d="M204.295,68.15c-0.305,0.181-0.608,0.371-0.922,0.553c-1.984-0.646-3.978-1.256-5.986-1.812
						c-0.264-0.361-0.536-0.72-0.799-1.081c0.305-0.199,0.609-0.406,0.906-0.603c2.009,0.556,4.01,1.166,5.994,1.82
						C203.761,67.396,204.031,67.772,204.295,68.15z"/>
				</g>
				<g enable-background="new    ">
					<defs>
						<path id="SVGID_213_" enable-background="new    " d="M197.387,66.891l-0.642-0.349c-0.264-0.361-0.536-0.72-0.8-1.081
							l0.643,0.35C196.851,66.171,197.123,66.53,197.387,66.891z"/>
					</defs>
					<clipPath id="SVGID_218_">
						<use xlink:href="#SVGID_213_"  overflow="visible"/>
					</clipPath>
					<g clip-path="url(#SVGID_218_)" enable-background="new    ">
						<path fill="#626A6E" d="M197.387,66.891l-0.642-0.349c-0.264-0.361-0.536-0.72-0.8-1.081l0.643,0.35
							C196.851,66.171,197.123,66.53,197.387,66.891"/>
					</g>
				</g>
				<g>
					<path fill="#A5B2B9" d="M195.553,66.509c0.233-0.163,0.458-0.323,0.69-0.477c0.343,0.444,0.679,0.898,1.014,1.353
						c-0.106,1.597-0.213,3.202-0.312,4.807c-0.617,0.397-1.234,0.813-1.853,1.22C195.248,71.107,195.405,68.812,195.553,66.509z"/>
				</g>
				<g enable-background="new    ">
					<defs>
						<path id="SVGID_215_" enable-background="new    " d="M195.553,66.509l-0.642-0.349c0.233-0.163,0.458-0.324,0.69-0.478
							l0.642,0.349C196.011,66.186,195.786,66.346,195.553,66.509z"/>
					</defs>
					<clipPath id="SVGID_220_">
						<use xlink:href="#SVGID_215_"  overflow="visible"/>
					</clipPath>
					<g clip-path="url(#SVGID_220_)" enable-background="new    ">
						<path fill="#757E83" d="M195.553,66.509l-0.642-0.349c0.147-0.103,0.291-0.205,0.435-0.305l0.643,0.35
							C195.844,66.305,195.7,66.406,195.553,66.509"/>
						<path fill="#798388" d="M195.988,66.205l-0.643-0.35c0.085-0.058,0.17-0.116,0.256-0.173l0.642,0.349
							C196.157,66.088,196.072,66.146,195.988,66.205"/>
					</g>
				</g>
				<g enable-background="new    ">
					<defs>
						<path id="SVGID_217_" enable-background="new    " d="M195.092,73.411l-0.642-0.349c0.156-2.304,0.313-4.6,0.461-6.902
							l0.642,0.349C195.405,68.812,195.248,71.107,195.092,73.411z"/>
					</defs>
					<clipPath id="SVGID_222_">
						<use xlink:href="#SVGID_217_"  overflow="visible"/>
					</clipPath>
					<g clip-path="url(#SVGID_222_)" enable-background="new    ">
						<path fill="#626A6E" d="M195.092,73.411l-0.642-0.349c0.156-2.304,0.313-4.6,0.461-6.902l0.642,0.349
							C195.405,68.812,195.248,71.107,195.092,73.411"/>
					</g>
				</g>
				<g enable-background="new    ">
					<defs>
						<path id="SVGID_219_" enable-background="new    " d="M196.284,65.404l-0.642-0.349c-0.199-0.274-0.4-0.541-0.607-0.806
							l0.643,0.35C195.885,64.863,196.085,65.129,196.284,65.404z"/>
					</defs>
					<clipPath id="SVGID_224_">
						<use xlink:href="#SVGID_219_"  overflow="visible"/>
					</clipPath>
					<g clip-path="url(#SVGID_224_)" enable-background="new    ">
						<path fill="#626A6E" d="M196.284,65.404l-0.642-0.349c-0.199-0.274-0.4-0.541-0.607-0.806l0.643,0.35
							C195.885,64.863,196.085,65.129,196.284,65.404"/>
					</g>
				</g>
				<g>
					<path fill="#A5B2B9" d="M203.635,61.656c-1.849-0.613-3.714-1.181-5.578-1.705c-0.528-0.729-1.062-1.441-1.599-2.161
						c2.441,0.66,4.875,1.389,7.284,2.183c0.264,0.369,0.527,0.738,0.79,1.108C204.229,61.271,203.932,61.468,203.635,61.656z"/>
				</g>
				<g enable-background="new    ">
					<defs>
						<path id="SVGID_221_" enable-background="new    " d="M198.057,59.951l-0.642-0.349c-0.528-0.729-1.063-1.441-1.599-2.162
							l0.642,0.35C196.994,58.51,197.528,59.222,198.057,59.951z"/>
					</defs>
					<clipPath id="SVGID_226_">
						<use xlink:href="#SVGID_221_"  overflow="visible"/>
					</clipPath>
					<g clip-path="url(#SVGID_226_)" enable-background="new    ">
						<path fill="#626A6E" d="M198.057,59.951l-0.642-0.349c-0.528-0.729-1.063-1.441-1.599-2.162l0.642,0.35
							C196.994,58.51,197.528,59.222,198.057,59.951"/>
					</g>
				</g>
				<g enable-background="new    ">
					<defs>
						<path id="SVGID_223_" enable-background="new    " d="M196.458,57.79l-0.642-0.35c2.441,0.66,4.875,1.39,7.284,2.184
							l0.642,0.349C201.333,59.179,198.899,58.45,196.458,57.79z"/>
					</defs>
					<clipPath id="SVGID_227_">
						<use xlink:href="#SVGID_223_"  overflow="visible"/>
					</clipPath>
					<g clip-path="url(#SVGID_227_)" enable-background="new    ">
						<path fill="#798388" d="M196.458,57.79l-0.642-0.35c2.441,0.66,4.875,1.39,7.284,2.184l0.642,0.349
							C201.333,59.179,198.899,58.45,196.458,57.79"/>
					</g>
				</g>
				<g>
					<path fill="#A5B2B9" d="M197.438,64.645c-0.385,0.253-0.77,0.506-1.154,0.759c-0.199-0.274-0.399-0.541-0.606-0.805
						c0.148-2.199,0.296-4.407,0.443-6.606c0.536,0.72,1.079,1.439,1.614,2.159C197.637,61.652,197.538,63.145,197.438,64.645z"/>
				</g>
				<g enable-background="new    ">
					<defs>
						<path id="SVGID_225_" enable-background="new    " d="M195.678,64.599l-0.643-0.35c0.148-2.199,0.296-4.406,0.444-6.605
							l0.642,0.349C195.974,60.192,195.826,62.399,195.678,64.599z"/>
					</defs>
					<clipPath id="SVGID_228_">
						<use xlink:href="#SVGID_225_"  overflow="visible"/>
					</clipPath>
					<g clip-path="url(#SVGID_228_)" enable-background="new    ">
						<path fill="#626A6E" d="M195.678,64.599l-0.643-0.35c0.148-2.199,0.296-4.406,0.444-6.605l0.642,0.349
							C195.974,60.192,195.826,62.399,195.678,64.599"/>
					</g>
				</g>
			</g>
		</g>
	</g>
	<g>
		<path d="M93.63,230.343c-0.703,2.002-1.458,4.093-2.09,5.954h-1.317l-4.092-12.382h1.844l2.933,8.869l2.02-5.743h1.422
			l2.002,5.726c0.966-2.933,2.037-6.06,2.95-8.852h1.862l-4.092,12.382h-1.317L93.63,230.343z"/>
		<path d="M103.284,229.096h5.199v-5.181h1.792v12.276h-1.792v-5.339h-5.199v5.339h-1.773v-12.276h1.773V229.096z"/>
		<path d="M118.173,232.573h-4.408c-0.474,1.124-1.089,2.6-1.475,3.618h-1.915l4.936-12.452h1.299l4.935,12.452h-1.896
			L118.173,232.573z M114.432,230.905h3.056l-1.511-4.338L114.432,230.905z"/>
		<path d="M123.368,236.244v-10.556h-3.723v-1.791h9.203v1.791h-3.706v10.556H123.368z"/>
		<path d="M137.605,223.915v12.276h-1.756v-12.276H137.605z M137.939,229.605l4.285-5.69h2.23l-4.689,6.095l5.181,6.182h-2.318
			l-4.689-5.69V229.605z"/>
		<path d="M151.002,225.671h-2.283v8.747h2.283v1.773h-6.34v-1.773h2.283v-8.747h-2.283v-1.756h6.34V225.671z"/>
		<path d="M151.877,236.191V223.88l1.37,0.018l5.989,8.658v-8.658h1.756v12.294h-1.405l-5.937-8.588v8.588H151.877z"/>
		<path d="M166.626,223.915c4.021,0,6.042,3.073,6.042,6.146c0,3.074-2.02,6.13-6.042,6.13h-4.409v-12.276H166.626z
			 M166.626,234.418c2.845,0,4.285-2.178,4.285-4.356c0-2.178-1.44-4.373-4.285-4.373h-2.635v8.729H166.626z"/>
		<path d="M178.036,233.627h-1.791v-1.439c0-1.581,1.019-2.056,2.125-2.617h-0.018c0.649-0.352,1.317-0.702,1.353-1.757
			c0.035-1.106-0.896-2.178-2.582-2.178c-1.212,0-2.125,0.721-2.687,1.88l-1.44-0.826c0.755-1.615,2.125-2.88,4.127-2.88
			c2.846,0,4.496,1.949,4.461,4.039c-0.053,2.091-1.37,2.723-2.477,3.319c-0.562,0.299-1.089,0.545-1.089,1.037L178.036,233.627z
			 M178.282,235.313c0,0.544-0.474,1.124-1.159,1.124c-0.614,0-1.106-0.58-1.106-1.124c0-0.686,0.492-1.159,1.106-1.159
			C177.809,234.154,178.282,234.628,178.282,235.313z"/>
		<g>
			<path fill="#808080" stroke="#808080" stroke-miterlimit="10" d="M46.403,223.915l4.321,6.92l4.32-6.92h0.333l-4.514,7.201v5.075
				h-0.281v-5.075l-4.514-7.201H46.403z"/>
			<path fill="#808080" stroke="#808080" stroke-miterlimit="10" d="M56.938,225.583c1.124-1.159,2.705-1.861,4.426-1.861
				c1.739,0,3.302,0.702,4.443,1.861c1.124,1.142,1.844,2.723,1.844,4.461c0,1.739-0.72,3.32-1.844,4.462
				c-1.142,1.158-2.705,1.861-4.443,1.861c-1.721,0-3.302-0.703-4.426-1.861c-1.124-1.142-1.844-2.723-1.844-4.462
				C55.093,228.306,55.813,226.725,56.938,225.583z M65.614,225.794c-1.089-1.106-2.6-1.791-4.25-1.791s-3.144,0.685-4.232,1.791
				c-1.071,1.089-1.756,2.582-1.756,4.25c0,1.669,0.685,3.162,1.756,4.251c1.089,1.106,2.582,1.791,4.232,1.791
				s3.162-0.685,4.25-1.791c1.071-1.089,1.739-2.582,1.739-4.251C67.353,228.376,66.685,226.883,65.614,225.794z"/>
			<path fill="#808080" stroke="#808080" stroke-miterlimit="10" d="M68.91,232.854v-8.939h0.281v8.957
				c0,2.125,2.143,3.179,4.022,3.179c1.879,0,4.022-1.054,4.022-3.196v-8.939h0.281v8.957c0,2.266-2.283,3.46-4.303,3.46
				C71.175,236.332,68.91,235.138,68.91,232.854z"/>
			<path fill="#808080" stroke="#808080" stroke-miterlimit="10" d="M81.742,230.185c0,0.158-0.141,0.316-0.352,0.316
				c-0.176,0-0.316-0.158-0.316-0.316c0-0.21,0.14-0.351,0.316-0.351C81.602,229.834,81.742,229.975,81.742,230.185z
				 M81.742,235.928c0,0.158-0.141,0.316-0.352,0.316c-0.176,0-0.316-0.158-0.316-0.316c0-0.211,0.14-0.351,0.316-0.351
				C81.602,235.577,81.742,235.717,81.742,235.928z"/>
			<path fill="#808080" stroke="#808080" stroke-miterlimit="10" d="M47.088,257.259h-0.263v-12.294h0.281l5.093,7.534l5.111-7.534
				h0.281v12.294h-0.263v-11.89l-5.005,7.446h-0.229l-5.005-7.446V257.259z"/>
			<path fill="#808080" stroke="#808080" stroke-miterlimit="10" d="M59.518,256.995h6.533v0.264h-6.779h-0.035v-12.276h6.779v0.264
				h-6.498v5.726h6.358v0.28h-6.358V256.995z"/>
			<path fill="#808080" stroke="#808080" stroke-miterlimit="10" d="M69.875,251.252c0,0.158-0.141,0.316-0.352,0.316
				c-0.175,0-0.316-0.158-0.316-0.316c0-0.21,0.141-0.351,0.316-0.351C69.734,250.901,69.875,251.042,69.875,251.252z
				 M69.875,256.995c0,0.158-0.141,0.316-0.352,0.316c-0.175,0-0.316-0.158-0.316-0.316c0-0.211,0.141-0.351,0.316-0.351
				C69.734,256.645,69.875,256.784,69.875,256.995z"/>
		</g>
		<path d="M81.763,251.41c-0.703,2.002-1.458,4.093-2.09,5.954h-1.317l-4.092-12.382h1.844l2.933,8.869l2.02-5.743h1.422
			l2.002,5.726c0.966-2.933,2.037-6.06,2.95-8.852h1.862l-4.092,12.382h-1.317L81.763,251.41z"/>
		<path d="M91.417,250.163h5.199v-5.181h1.792v12.276h-1.792v-5.339h-5.199v5.339h-1.773v-12.276h1.773V250.163z"/>
		<path d="M106.306,253.641h-4.408c-0.474,1.124-1.089,2.6-1.475,3.618h-1.915l4.936-12.452h1.299l4.935,12.452h-1.896
			L106.306,253.641z M102.565,251.973h3.056l-1.511-4.338L102.565,251.973z"/>
		<path d="M111.501,257.312v-10.556h-3.723v-1.791h9.203v1.791h-3.706v10.556H111.501z"/>
		<path d="M125.737,244.982v12.276h-1.756v-12.276H125.737z M126.071,250.673l4.285-5.69h2.23l-4.689,6.094l5.181,6.183h-2.318
			l-4.689-5.69V250.673z"/>
		<path d="M139.134,246.738h-2.283v8.747h2.283v1.773h-6.34v-1.773h2.283v-8.747h-2.283v-1.756h6.34V246.738z"/>
		<path d="M140.01,257.259v-12.312l1.37,0.018l5.989,8.658v-8.658h1.756v12.294h-1.405l-5.937-8.588v8.588H140.01z"/>
		<path d="M154.758,244.982c4.021,0,6.042,3.073,6.042,6.146c0,3.074-2.02,6.13-6.042,6.13h-4.409v-12.276H154.758z
			 M154.758,255.485c2.845,0,4.285-2.178,4.285-4.356c0-2.178-1.44-4.373-4.285-4.373h-2.635v8.729H154.758z"/>
		<path d="M172.366,244.982c4.021,0,6.041,3.073,6.041,6.146c0,3.074-2.02,6.13-6.041,6.13h-4.409v-12.276H172.366z
			 M172.366,255.485c2.845,0,4.285-2.178,4.285-4.356c0-2.178-1.44-4.373-4.285-4.373h-2.635v8.729H172.366z"/>
		<path d="M180.879,246.668c1.124-1.142,2.705-1.861,4.426-1.861c1.739,0,3.303,0.72,4.444,1.861
			c1.106,1.142,1.826,2.705,1.826,4.443c0,1.739-0.72,3.303-1.826,4.444c-1.142,1.158-2.705,1.861-4.444,1.861
			c-1.721,0-3.302-0.703-4.426-1.861c-1.106-1.142-1.826-2.705-1.826-4.444C179.053,249.373,179.772,247.81,180.879,246.668z
			 M188.484,247.933c-0.826-0.825-1.968-1.335-3.18-1.335c-1.211,0-2.335,0.51-3.144,1.335c-0.808,0.809-1.317,1.933-1.317,3.179
			c0,1.247,0.51,2.371,1.317,3.18c0.809,0.825,1.933,1.334,3.144,1.334c1.212,0,2.354-0.509,3.18-1.334
			c0.79-0.809,1.299-1.915,1.299-3.18C189.783,249.848,189.274,248.741,188.484,247.933z"/>
		<path d="M199.786,244.982l3.354,5.392l3.354-5.392h2.107l-4.566,7.271v5.006h-1.791v-5.006l-4.549-7.271H199.786z"/>
		<path d="M209.582,246.668c1.124-1.142,2.705-1.861,4.426-1.861c1.739,0,3.303,0.72,4.444,1.861
			c1.106,1.142,1.826,2.705,1.826,4.443c0,1.739-0.72,3.303-1.826,4.444c-1.142,1.158-2.705,1.861-4.444,1.861
			c-1.721,0-3.302-0.703-4.426-1.861c-1.106-1.142-1.826-2.705-1.826-4.444C207.756,249.373,208.476,247.81,209.582,246.668z
			 M217.188,247.933c-0.826-0.825-1.968-1.335-3.18-1.335c-1.211,0-2.335,0.51-3.144,1.335c-0.808,0.809-1.317,1.933-1.317,3.179
			c0,1.247,0.51,2.371,1.317,3.18c0.809,0.825,1.933,1.334,3.144,1.334c1.212,0,2.354-0.509,3.18-1.334
			c0.79-0.809,1.299-1.915,1.299-3.18C218.486,249.848,217.978,248.741,217.188,247.933z"/>
		<path d="M221.415,253.57v-8.588h1.791v8.605c0,1.353,1.458,2.02,2.758,2.02c1.282,0,2.739-0.685,2.739-2.037v-8.588h1.792v8.605
			c0,2.494-2.424,3.794-4.531,3.794C223.804,257.382,221.415,256.082,221.415,253.57z"/>
		<path d="M237.899,257.259v-12.312l1.37,0.018l5.988,8.658v-8.658h1.757v12.294h-1.405l-5.937-8.588v8.588H237.899z"/>
		<path d="M249.942,255.485h5.708v1.773h-7.499v-12.276h7.481v1.773h-5.69v3.46h5.567v1.792h-5.567V255.485z"/>
		<path d="M258.158,255.485h5.708v1.773h-7.499v-12.276h7.481v1.773h-5.69v3.46h5.567v1.792h-5.567V255.485z"/>
		<path d="M269.079,244.982c4.021,0,6.041,3.073,6.041,6.146c0,3.074-2.02,6.13-6.041,6.13h-4.408v-12.276H269.079z
			 M269.079,255.485c2.845,0,4.285-2.178,4.285-4.356c0-2.178-1.44-4.373-4.285-4.373h-2.635v8.729H269.079z"/>
		<path d="M280.49,254.694h-1.792v-1.439c0-1.581,1.02-2.056,2.126-2.617h-0.018c0.649-0.352,1.316-0.702,1.352-1.757
			c0.035-1.106-0.896-2.178-2.581-2.178c-1.212,0-2.125,0.721-2.688,1.88l-1.44-0.826c0.756-1.615,2.125-2.88,4.128-2.88
			c2.845,0,4.496,1.949,4.461,4.039c-0.053,2.091-1.37,2.723-2.477,3.319c-0.562,0.299-1.089,0.545-1.089,1.037L280.49,254.694z
			 M280.736,256.381c0,0.544-0.475,1.124-1.159,1.124c-0.615,0-1.106-0.58-1.106-1.124c0-0.686,0.491-1.159,1.106-1.159
			C280.262,255.222,280.736,255.695,280.736,256.381z"/>
	</g>
	<g>
		<path fill="none" stroke="#BDCCD4" stroke-miterlimit="10" d="M85.636,59.43c33.78-13.737,71.831-18.434,110.087-12.286"/>
	</g>
</g>
</svg>
